<svg version="1.1" xmlns="http://www.w3.org/2000/svg" xmlns:xlink="http://www.w3.org/1999/xlink">
    <symbol id="address-green" viewBox="0 0 34 34">
        <path d="M16.7001 33.5998C25.7575 33.5998 33.1 26.2573 33.1 17.1998C33.1 8.14234 25.7575 0.799805 16.7001 0.799805C7.64258 0.799805 0.300049 8.14234 0.300049 17.1998C0.300049 26.2573 7.64258 33.5998 16.7001 33.5998Z" fill="#DDECE4"/>
        <path d="M16.7001 6.59961C20.3001 6.69961 23.3001 9.29961 23.9001 12.8996C24.2001 14.5996 23.8001 16.1996 23.0001 17.6996C21.9001 19.5996 20.8001 21.4996 19.8001 23.3996C19.1001 24.6996 18.3001 25.9996 17.6001 27.1996C17.4001 27.4996 17.2001 27.7996 16.8001 27.6996C16.4001 27.6996 16.2001 27.4996 16.0001 27.0996C14.3001 24.0996 12.6001 21.0996 10.8001 17.9996C10.3001 17.0996 9.8001 16.1996 9.7001 15.1996C9.0001 11.0996 11.7001 7.19961 15.7001 6.59961C16.0001 6.69961 16.3001 6.69961 16.7001 6.59961Z" fill="none" stroke="#53504C" stroke-width="2" stroke-miterlimit="10"/>
        <path d="M14.4001 13.5999C14.4001 14.8999 15.4001 15.8999 16.7001 15.8999C17.9001 15.8999 18.9001 14.8999 19.0001 13.6999C19.0001 12.3999 18.0001 11.3999 16.7001 11.3999C15.5001 11.3999 14.4001 12.3999 14.4001 13.5999Z" fill="none" stroke="#53504C" stroke-width="2" stroke-miterlimit="10"/>
    </symbol>
    <symbol id="address-orange" viewBox="0 0 34 34">
        <path d="M16.7001 33.5998C25.7575 33.5998 33.1 26.2573 33.1 17.1998C33.1 8.14234 25.7575 0.799805 16.7001 0.799805C7.64258 0.799805 0.300049 8.14234 0.300049 17.1998C0.300049 26.2573 7.64258 33.5998 16.7001 33.5998Z" fill="#F9E4CB"/>
        <path d="M16.7001 6.59961C20.3001 6.69961 23.3001 9.29961 23.9001 12.8996C24.2001 14.5996 23.8001 16.1996 23.0001 17.6996C21.9001 19.5996 20.8001 21.4996 19.8001 23.3996C19.1001 24.6996 18.3001 25.9996 17.6001 27.1996C17.4001 27.4996 17.2001 27.7996 16.8001 27.6996C16.4001 27.6996 16.2001 27.4996 16.0001 27.0996C14.3001 24.0996 12.6001 21.0996 10.8001 17.9996C10.3001 17.0996 9.8001 16.1996 9.7001 15.1996C9.0001 11.0996 11.7001 7.19961 15.7001 6.59961C16.0001 6.69961 16.3001 6.69961 16.7001 6.59961Z" fill="none" stroke="#53504C" stroke-width="2" stroke-miterlimit="10"/>
        <path d="M14.4001 13.5999C14.4001 14.8999 15.4001 15.8999 16.7001 15.8999C17.9001 15.8999 18.9001 14.8999 19.0001 13.6999C19.0001 12.3999 18.0001 11.3999 16.7001 11.3999C15.5001 11.3999 14.4001 12.3999 14.4001 13.5999Z" fill="none" stroke="#53504C" stroke-width="2" stroke-miterlimit="10"/>
    </symbol>
    <symbol id="time" viewBox="0 0 34 34">
        <path d="M32.6999 17.1002C32.6999 25.8815 25.5812 33.0002 16.7999 33.0002C8.01857 33.0002 0.899902 25.8815 0.899902 17.1002C0.899902 8.31887 8.01857 1.2002 16.7999 1.2002C25.5812 1.2002 32.6999 8.31887 32.6999 17.1002Z" fill="none" stroke="#CACACA"/>
        <path d="M16.7998 12.7002V17.1002L19.0998 20.0002" fill="none" stroke="#53504C" stroke-width="2" stroke-miterlimit="10" stroke-linecap="round"/>
        <path d="M16.7999 25.0002C21.163 25.0002 24.6999 21.4632 24.6999 17.1002C24.6999 12.7371 21.163 9.2002 16.7999 9.2002C12.4369 9.2002 8.8999 12.7371 8.8999 17.1002C8.8999 21.4632 12.4369 25.0002 16.7999 25.0002Z" fill="none" stroke="#53504C" stroke-width="2" stroke-miterlimit="10" stroke-linecap="round"/>
    </symbol>
    <symbol id="time-green" viewBox="0 0 34 34">
        <path d="M16.7999 33.5002C25.8574 33.5002 33.1999 26.1577 33.1999 17.1002C33.1999 8.04272 25.8574 0.700195 16.7999 0.700195C7.74243 0.700195 0.399902 8.04272 0.399902 17.1002C0.399902 26.1577 7.74243 33.5002 16.7999 33.5002Z" fill="#DDECE4"/>
        <path d="M16.7998 12.7002V17.1002L19.0998 20.0002" fill="none" stroke="#53504C" stroke-width="2" stroke-miterlimit="10" stroke-linecap="round"/>
        <path d="M16.7999 25.0002C21.163 25.0002 24.6999 21.4632 24.6999 17.1002C24.6999 12.7371 21.163 9.2002 16.7999 9.2002C12.4369 9.2002 8.8999 12.7371 8.8999 17.1002C8.8999 21.4632 12.4369 25.0002 16.7999 25.0002Z" fill="none" stroke="#53504C" stroke-width="2" stroke-miterlimit="10" stroke-linecap="round"/>
    </symbol>
    <symbol id="time-orange" viewBox="0 0 34 34">
        <path d="M16.7999 33.5002C25.8574 33.5002 33.1999 26.1577 33.1999 17.1002C33.1999 8.04272 25.8574 0.700195 16.7999 0.700195C7.74243 0.700195 0.399902 8.04272 0.399902 17.1002C0.399902 26.1577 7.74243 33.5002 16.7999 33.5002Z" fill="#F9E4CB"/>
        <path d="M16.7998 12.7002V17.1002L19.0998 20.0002" fill="none" stroke="#53504C" stroke-width="2" stroke-miterlimit="10" stroke-linecap="round"/>
        <path d="M16.7999 25.0002C21.163 25.0002 24.6999 21.4632 24.6999 17.1002C24.6999 12.7371 21.163 9.2002 16.7999 9.2002C12.4369 9.2002 8.8999 12.7371 8.8999 17.1002C8.8999 21.4632 12.4369 25.0002 16.7999 25.0002Z" fill="none" stroke="#53504C" stroke-width="2" stroke-miterlimit="10" stroke-linecap="round"/>
    </symbol>
    <symbol id="phone-green" viewBox="0 0 34 34">
        <path d="M17.0001 33.8C26.0576 33.8 33.4001 26.4575 33.4001 17.4C33.4001 8.34253 26.0576 1 17.0001 1C7.94263 1 0.600098 8.34253 0.600098 17.4C0.600098 26.4575 7.94263 33.8 17.0001 33.8Z" fill="#DCEAE3"/>
        <path d="M10.4001 7.7002C10.5001 7.7002 10.6001 7.7002 10.7001 7.8002C11.0001 7.8002 11.3001 8.0002 11.5001 8.2002C12.4001 9.1002 13.4001 10.1002 14.3001 11.0002C15.0001 11.7002 15.0001 12.6002 14.3001 13.4002C13.9001 13.9002 13.4001 14.3002 13.0001 14.7002C12.9001 14.8002 12.9001 14.8002 13.0001 14.9002C13.7001 16.2002 14.5001 17.5002 15.6001 18.5002C16.5001 19.4002 17.6001 20.2002 18.7001 20.9002C19.0001 21.1002 19.3001 21.3002 19.7001 21.4002C20.2001 20.9002 20.6001 20.5002 21.1001 20.0002C21.2001 19.9002 21.4001 19.8002 21.5001 19.7002C22.2001 19.3002 22.9001 19.4002 23.4001 19.9002C24.4001 20.9002 25.3001 21.8002 26.3001 22.8002C26.5001 23.0002 26.7001 23.3002 26.8001 23.6002C26.8001 23.8002 26.8001 23.9002 26.8001 24.1002C26.7001 24.3002 26.7001 24.4002 26.6001 24.6002C26.4001 24.9002 26.1001 25.2002 25.9001 25.5002C25.3001 26.1002 24.6001 26.5002 23.8001 26.7002C23.5001 26.8002 23.1001 26.8002 22.8001 26.9002H22.7001C22.6001 26.9002 22.5001 26.9002 22.4001 26.9002C21.7001 26.9002 21.1001 26.8002 20.5001 26.6002C18.8001 26.1002 17.2001 25.3002 15.7001 24.3002C13.2001 22.5002 11.0001 20.2002 9.3001 17.7002C8.5001 16.6002 8.0001 15.4002 7.7001 14.0002C7.6001 13.7002 7.6001 13.4002 7.6001 13.1002C7.6001 12.7002 7.6001 12.3002 7.6001 12.0002C7.6001 11.9002 7.6001 11.9002 7.6001 11.8002C7.7001 11.4002 7.7001 11.1002 7.8001 10.7002C7.7001 10.1002 8.1001 9.5002 8.5001 9.0002C8.7001 8.7002 9.0001 8.4002 9.3001 8.1002C9.5001 8.0002 9.8001 7.9002 10.0001 7.8002C10.1001 7.7002 10.2001 7.7002 10.4001 7.7002C10.3001 7.7002 10.3001 7.7002 10.4001 7.7002Z" fill="#53504C"/>
    </symbol>
    <symbol id="phone-orange" viewBox="0 0 34 34">
        <path d="M17.0001 33.8C26.0576 33.8 33.4001 26.4575 33.4001 17.4C33.4001 8.34253 26.0576 1 17.0001 1C7.94263 1 0.600098 8.34253 0.600098 17.4C0.600098 26.4575 7.94263 33.8 17.0001 33.8Z" fill="#F9E4CB"/>
        <path d="M10.4001 7.7002C10.5001 7.7002 10.6001 7.7002 10.7001 7.8002C11.0001 7.8002 11.3001 8.0002 11.5001 8.2002C12.4001 9.1002 13.4001 10.1002 14.3001 11.0002C15.0001 11.7002 15.0001 12.6002 14.3001 13.4002C13.9001 13.9002 13.4001 14.3002 13.0001 14.7002C12.9001 14.8002 12.9001 14.8002 13.0001 14.9002C13.7001 16.2002 14.5001 17.5002 15.6001 18.5002C16.5001 19.4002 17.6001 20.2002 18.7001 20.9002C19.0001 21.1002 19.3001 21.3002 19.7001 21.4002C20.2001 20.9002 20.6001 20.5002 21.1001 20.0002C21.2001 19.9002 21.4001 19.8002 21.5001 19.7002C22.2001 19.3002 22.9001 19.4002 23.4001 19.9002C24.4001 20.9002 25.3001 21.8002 26.3001 22.8002C26.5001 23.0002 26.7001 23.3002 26.8001 23.6002C26.8001 23.8002 26.8001 23.9002 26.8001 24.1002C26.7001 24.3002 26.7001 24.4002 26.6001 24.6002C26.4001 24.9002 26.1001 25.2002 25.9001 25.5002C25.3001 26.1002 24.6001 26.5002 23.8001 26.7002C23.5001 26.8002 23.1001 26.8002 22.8001 26.9002H22.7001C22.6001 26.9002 22.5001 26.9002 22.4001 26.9002C21.7001 26.9002 21.1001 26.8002 20.5001 26.6002C18.8001 26.1002 17.2001 25.3002 15.7001 24.3002C13.2001 22.5002 11.0001 20.2002 9.3001 17.7002C8.5001 16.6002 8.0001 15.4002 7.7001 14.0002C7.6001 13.7002 7.6001 13.4002 7.6001 13.1002C7.6001 12.7002 7.6001 12.3002 7.6001 12.0002C7.6001 11.9002 7.6001 11.9002 7.6001 11.8002C7.7001 11.4002 7.7001 11.1002 7.8001 10.7002C7.7001 10.1002 8.1001 9.5002 8.5001 9.0002C8.7001 8.7002 9.0001 8.4002 9.3001 8.1002C9.5001 8.0002 9.8001 7.9002 10.0001 7.8002C10.1001 7.7002 10.2001 7.7002 10.4001 7.7002C10.3001 7.7002 10.3001 7.7002 10.4001 7.7002Z" fill="#53504C"/>
    </symbol>
</svg>