<?xml version="1.0" encoding="utf-8"?>
<!-- Generator: Adobe Illustrator 19.0.1, SVG Export Plug-In . SVG Version: 6.00 Build 0)  -->
<svg version="1.1" id="Слой_1" xmlns="http://www.w3.org/2000/svg" xmlns:xlink="http://www.w3.org/1999/xlink" x="0px" y="0px"
	 viewBox="123 -21.5 297.6 85" style="enable-background:new 123 -21.5 297.6 85;" xml:space="preserve">
<style type="text/css">
	.st0{fill:#53504C;}
</style>
<path class="st0" d="M199-8.4c-1-1.6-2.8-2.5-4.6-2.4c-4.1,0.1-11.1,5.7-21.3,14.3c-3.7,3.1-7.1,6-10,8.1c-0.9,0.7-1.8,1.3-2.7,2
	c-1.4-1.2-2.9-2-4.6-2.4c3.7-7.1,6.9-13.5,7.5-15.1c1-2.5,1.1-5.1,0.3-7.4c-0.3-1-1-2.3-2.2-2.6c-0.9-0.2-1.6,0.1-4.7,4
	c-0.5,0.7-1.1,1.4-1.6,2.1c-0.3-0.7-0.8-1.3-1.5-1.8c-1.7-1-4.4-0.9-5.9-0.2c-0.3,0.1-0.5,0.2-0.7,0.3c-1.1,0.5-1.6,0.7-2.4,0.4
	c-1.5-0.7-2.7-1.2-3.9-1.6c-0.2-0.1-0.4-0.2-0.6-0.3c-1.1-0.5-2.3-0.9-3.3-1.2c-0.6-1.6-3.1-2.4-4.4-1.4c-0.4,0.3-0.6,1-0.8,1.7
	c-0.1,0.3-0.1,0.7-0.2,0.9c0,0.3,0,0.5,0.1,0.7c-1,1.9-1.2,4.4-1.2,5.3c-0.1,2.5,1.1,5.3,3.2,7.1c1.2,1,2.6,1.7,4.1,2.1
	c3.2,0.8,6.7,0.3,9.3-1.2c0.7-0.4,0.9-1.2,0.5-1.9c-0.4-0.7-1.2-0.9-1.9-0.5c-2,1.1-4.8,1.5-7.3,0.9c-1.1-0.3-2.1-0.7-3-1.5
	c-1.4-1.2-2.3-3.1-2.2-4.8c0.1-1.8,0.6-4,1.4-4.9c0.4-0.1,1.5,0.1,4.5,1.3c0.3,0.1,0.6,0.2,0.7,0.3c1.1,0.4,2.2,0.9,3.7,1.6
	c2,0.9,3.5,0.1,4.7-0.4c0.2-0.1,0.4-0.2,0.6-0.3c0.9-0.4,2-0.5,2.9-0.1c1.2,0.5,2,1.8,2.4,3c0.1,0.3,0.3,1.2,0.3,1.2
	s0.5,0.1,0.9,0.3c2.7-4.3,4.3-6.4,5.5-7.8c0,0.1,0.1,0.1,0.1,0.2c0.6,1.6,0.5,3.5-0.3,5.4c-0.6,1.6-4,8.3-7.9,15.7
	c-3.8,0-8.9,1.2-10.8,4.6c-0.6,1.1-0.8,2.4-0.4,3.5c0.3,1.1,1.1,2,2.3,2.6c0.9,0.5,1.9,0.7,3,0.8c-2.7,5.1-4.9,9.4-5.7,10.9
	c-0.2,0.5-0.5,0.9-0.8,1.4c-2.1,4-4.8,9-8.5,10.7c-1.1,0.7-2.5,0.4-3.5-0.6c-0.9-0.8-1.6-2.3-0.9-4c0.9-2.2,3.5-3.4,5.8-3.6
	c0.8-0.1,1.3-0.7,1.3-1.5c-0.1-0.8-0.7-1.3-1.5-1.3c-2.9,0.2-6.8,1.7-8.2,5.3c-1,2.5-0.3,5.2,1.6,7.1c1.2,1.2,2.7,1.8,4.3,1.8
	c0.8,0,1.7-0.2,2.5-0.5c4.6-2.1,7.5-7.5,9.8-12c0.3-0.5,0.5-1,0.7-1.4c0.9-1.7,3.5-6.6,6.5-12.4c1.1-0.2,2.1-0.5,2.9-0.9
	c2.5-1.1,4.8-2.5,7.1-4c1.1,1.4,2.1,3.1,3,5.4c1.8,4.3,3.6,9,5.4,14.3c1.6,4.5,3.8,7.8,6.7,9.8c1.9,1.3,4.2,2,6.3,2
	c1.9,0,3.7-0.5,5.3-1.5c3.3-2.1,5.4-6.9,3.3-10.5c-0.6-1.6-5.2-3.7-5.2-3.7s-0.9,1.4-1.4,2.1c0,0,3.7,1.8,4.2,2.6
	c1.3,2.1-0.2,5.3-2.4,6.7c-2.5,1.6-5.8,1.4-8.5-0.4c-2.4-1.6-4.3-4.5-5.6-8.4c-1.8-5.3-3.7-10.1-5.5-14.4c-1-2.4-2.1-4.3-3.3-5.9
	c0.8-0.6,1.6-1.2,2.4-1.8c3-2.2,6.5-5.1,10.2-8.2c7.2-5.7,16.2-13.2,19.7-13.4c1.3-0.1,2.4,1,2.8,2.2c0.3,0.8,0.2,1.9,0.7,2.7
	c0.7,1,1.3,0,1.6-0.8C200.3-5.6,199.5-7.7,199-8.4z M148.2,19.6c-1.1,0.1-2.3-0.1-3.2-0.5c-0.3-0.2-0.7-0.4-0.8-0.9
	c-0.1-0.4,0-0.9,0.2-1.3c1-1.8,4.1-2.9,6.8-3.1C150.2,15.7,149.2,17.6,148.2,19.6z M151.8,18.7c0.9-1.6,1.7-3.3,2.6-5
	c1.3,0.2,2.5,0.7,3.6,1.5C155.9,16.5,153.9,17.7,151.8,18.7z M150.4-5.2c-0.7-1.3-2.8-0.7-2.9,0.7c0,0.1,0,0.2,0,0.3
	c0.1,0.3,0.3,0.4,0.6,0.4c0.2,0,0.4,0,0.6,0c0.5-0.1,1-0.2,1.5-0.4C150.7-4.5,150.6-4.9,150.4-5.2z"/>
<path class="st0" d="M395.1,28.1c-4-3.2-9.7,0.2-14,2.6c-1.4,0.8-2.6,1.5-3.5,1.9c-1.5,0.6-3,0.5-3.8-0.1c-0.5-0.4-0.8-1.1-0.7-2.1
	c0.2-1.8,1.7-3.4,3.1-5c0.6-0.6,1.2-1.2,1.7-1.9s3.1-4.2,1.5-6.7c-0.6-0.9-1.6-1.5-2.7-1.6c-3.2-0.3-7.4,3.1-9.4,4.9
	c0.4-1.7,0.1-2.7-0.2-3.4c-0.5-0.9-1.5-1.5-2.7-1.4c-2.3,0.1-4.6,1.6-7.5,4.3l0.2-0.4c1.8-3.1,2.1-3.5,2.1-3.9
	c0.1-0.8-0.4-1.5-1.1-1.6s-1.4,0.3-1.6,1c0,0.1-0.1,0.2-0.2,0.3l0,0l-1.7,2.9c-0.6,1-1.3,2.2-2,3.3c-0.6,0.9-1.2,1.9-1.7,2.9
	c-0.1,0-0.1,0.1-0.2,0.2c-2.1,2.4-4.6,4.6-7.6,6.7c-3.4,2.4-6.4,3.4-8.2,2.9c-1-0.3-1.7-1.1-2.3-2.4c-0.2-0.4-0.3-0.8-0.3-1.2
	c0.7-0.2,1.4-0.4,2-0.6c5.9-2,10.7-7.6,11.3-11.4c0.3-1.9-0.5-2.8-1.1-3.2c-1.2-0.9-3-0.7-5.4,0.5c-3.3,1.6-6.2,4.7-8.4,8.9
	c-0.6,1.1-1,2.4-1.2,3.6c-1.4,0.2-2.6,0.1-3.5-0.3c2.3-2.6,4.1-5.8,3.1-9.1c-0.9-2.7-2.6-2.7-3.3-2.6c-2.7,0.5-5,5.8-4.9,8
	c0.1,1.5,0.5,2.7,1.1,3.8c-0.5,0.5-1,1-1.4,1.4l-0.2,0.2c-2.1,1.9-5.2,4.9-8.2,4.4c-0.6-0.1-1-0.4-1.4-0.9c-0.8-1.2-0.9-3.2-0.6-4.8
	c4.3-3.5,9.3-8.1,15.1-13.8l1.1-1.1c4.8-4.6,10.1-9.9,13.3-15.5c0.5-0.9,2-3.9,0.5-5.5c-0.5-0.6-1.6-1.2-3.6-0.3
	C330.4-5.5,320.1,5.9,320,6c-6.4,7.2-10.4,13.9-12.3,20.7c-3.1,2.6-5.8,4.5-8,5.8c-1.2,0.7-2.4,0.8-3.2,0.3
	c-0.7-0.5-0.9-1.5-0.6-2.8c0.1-0.7,0.6-1.5,1-2.3c2-3.3,5.8-8.6,6.4-9.5l0,0c0.4-0.6,0.3-1.5-0.3-1.9c-0.6-0.5-1.5-0.3-2,0.3
	l-0.4,0.5c-0.5,0.7-6.3,8.4-9,11.3c-2,2-5.3,4.2-6.1,3.8c0,0-0.1-0.1-0.1-0.2c-1-3.4,4.5-10.2,6.5-12.7c0.7-0.9,1-1.2,1.2-1.5
	c0.4-0.7,0.2-1.5-0.5-1.9s-1.5-0.2-1.9,0.5c-0.1,0.2-0.5,0.7-0.9,1.2c-2.7,3.4-8.5,10.5-7,15.3c0.3,1.1,1.1,1.9,2.1,2.1
	c2.7,0.7,6.5-2.5,8.1-4c0,1.8,0.7,3.2,1.9,4.1c1.6,1.2,4,1.1,6.2-0.2c1.8-1,3.9-2.5,6.2-4.3c0.1,1.4,0.4,2.8,1.2,3.9
	c0.8,1.2,1.9,1.9,3.3,2.2c4.3,0.7,8-2.8,10.5-5.1l0.2-0.2c0.5-0.4,1-0.9,1.5-1.4c1.6,1,3.6,1.2,5.5,1c0.1,0.6,0.3,1.2,0.5,1.8
	c0.9,2.1,2.2,3.4,4.1,4c0.6,0.2,1.2,0.3,1.8,0.3c2.4,0,5.4-1.2,8.7-3.5c0.5-0.4,1-0.7,1.5-1.1c-0.1,0.2-0.2,0.4-0.2,0.5l0,0l0,0
	l-0.3,0.5c-0.4,0.7-0.2,1.5,0.5,1.9c0.2,0.1,0.4,0.2,0.6,0.2c0.5,0,1-0.2,1.3-0.7l1-1.7c1-1.5,3-4.2,3.5-4.9
	c5.5-5.9,9.3-9.8,11.8-9.9c0.1,0,0.1,0,0.2,0c0.1,0.3,0.7,2.8-6.3,13.3c-0.1,0.2-0.3,0.4-0.4,0.6c-0.5,0.6-0.4,1.5,0.2,2
	c0.6,0.5,1.4,0.4,1.9-0.2c0.1-0.1,0.2-0.2,0.3-0.3s0.2-0.3,0.3-0.4c0.6-0.8,1.2-1.6,1.8-2.4c1.9-2.6,3.6-5.3,5.8-7.6
	c1.8-1.9,6.2-5.3,8.3-5.1c0.3,0,0.5,0.2,0.6,0.3c0.3,0.4-0.2,2-1.4,3.4c-0.4,0.5-0.9,1.1-1.5,1.7c-1.7,1.8-3.6,3.9-3.8,6.6
	c-0.2,2,0.5,3.6,1.8,4.6c1.6,1.2,4,1.4,6.5,0.4c1.1-0.4,2.4-1.2,4-2.1c3.7-2.1,8.3-4.8,10.8-2.8c0.8,0.7,0.3,2.3-0.5,2.8
	c-0.9,0.7-1.6,0.9-3.3,1c-0.7,0.1-1.6,0.2-1.8,1c-0.2,0.7,0.5,1,1,1.1c1.6,0.4,3.6-0.1,5.6-1.5c1.2-0.9,2-2.2,2.1-3.6
	C396.5,30,396,28.9,395.1,28.1z M333.2,25.7c1.3-2.5,3.7-5.9,7.2-7.7c1.3-0.6,2-0.7,2.3-0.7c0.1,0,0.2,0,0.2,0c0,0.2,0,0.7-0.3,1.7
	c-1.2,2.9-4.7,6.6-9.1,8.1c-0.3,0.1-0.6,0.2-0.9,0.3C332.7,26.8,332.9,26.3,333.2,25.7z M322.1,7.6c1.9-2.1,10.7-11.3,15.5-13.2
	c0.2-0.1,0.3-0.1,0.4-0.1c-0.1,0.5-0.3,1.2-0.8,2.1c-2.9,5.3-8.1,10.4-12.8,14.9l-1.1,1.1c-4.2,4.1-8,7.7-11.4,10.7
	C314,18,317.4,12.9,322.1,7.6z M323.7,23.8c-0.1-1.2,1.5-4.4,2.5-4.9c0.1,0.1,0.2,0.3,0.3,0.6c0.6,1.9-0.7,4.2-2.3,6.2
	C323.9,25.1,323.7,24.5,323.7,23.8z M242.7,11.6c0.1,0,0.1,0,0.2,0l14-1.9c0.8-0.1,1.3-0.8,1.2-1.6c-0.1-0.8-0.8-1.3-1.6-1.2
	l-14,1.9c-0.8,0.1-1.3,0.8-1.2,1.6C241.4,11.1,242,11.6,242.7,11.6z M279.7,16.7c-1.5-1.2-3.6-1-6.2,0.5c-0.9,0.5-1.6,1.1-2.4,1.7
	c0.7-2.3,1.2-4.1,1.6-5.1c0.3-0.7-0.1-1.5-0.9-1.8c-0.7-0.3-1.5,0.1-1.8,0.9c-0.5,1.4-1.3,4.2-2.5,8.1c-0.3,0.9-0.6,1.9-0.9,2.9
	c-0.1,0.2-0.2,0.3-0.3,0.5c-0.6,0.5-1.3,1.2-2.1,1.9c-2.2,2-4.8,4.5-6.3,5.5c-1,0.7-1.9,1.2-2.7,1.3c-1,0.1-1.9,0-2.4-0.4
	c-1.6-1.2,0-4.1,1.8-6.9c0.3-0.5,0.6-0.9,0.8-1.3c0.2-0.3,0.4-0.6,0.6-0.9c1.1-1.8,2.7-4.2,1.9-6.4c-0.6-1.7-1.7-2.3-2.6-2.5
	c-2.7-0.7-6,1.9-8.6,4.2c-0.2,0.1-0.3,0.3-0.4,0.4c0.1-1.2-0.1-2-0.4-2.5c-0.5-1-1.6-1.5-2.8-1.5c-2.2,0.1-4.6,1.6-7.4,4.2
	c1-1.6,1.4-2.4,1.7-2.9l0.1-0.2c0.4-0.7,0.2-1.5-0.5-1.9c-0.7-0.4-1.5-0.2-1.9,0.5l-2.5,4.3c-0.5,0.8-1,1.6-1.4,2.3
	c-1.2,1.9-2.4,3.9-3.5,5.7c-2.7,2.3-5.1,4-7.2,5.1c-1.7,0.9-2.7,1-3,0.7c-0.7-0.6-0.5-3.3,0.6-5.9c0.5-1.2,1.1-2.3,1.7-3.4
	c0.1-0.1,0.1-0.1,0.2-0.2l-0.1-0.1c0.8-1.4,1.6-2.9,2.5-4.3c0.5-0.8,1-1.6,1.5-2.5c0.4-0.7,0.2-1.5-0.5-1.9
	c-0.7-0.4-1.5-0.2-1.9,0.5c-0.5,0.8-1,1.6-1.4,2.4c-0.8,1.4-1.7,2.8-2.5,4.2c-2.2,1.7-4.1,2.2-6,1.6c-0.5-0.2-1.3-0.8-1.8-1.4l3-6.3
	c0.3-0.7,0-1.5-0.7-1.9c-0.7-0.3-1.5,0-1.9,0.7l-7.1,15c-2.2,2.1-4.9,3.5-7.3,3.6c-2.2,0.2-2.9-0.3-3.3-2.2c0-0.2-0.3-2.5,6.3-11.9
	l0.2-0.3c0.4-0.6,0.3-1.5-0.3-1.9c-0.6-0.4-1.5-0.3-1.9,0.3l-0.2,0.3c-0.4,0.6-0.8,1.2-1.2,1.7c-0.3-0.9-1.1-1.9-2.7-2.7
	c-0.8-0.4-1.7-0.6-2.6-0.6c-3.4,0-6.8,2.7-9,4.8c-2.3,2.1-4.1,4.8-5,7.4c-0.5,1.5-1.1,4.6,0.3,6.5c0.5,0.7,1.4,1.5,3.1,1.5h0.4
	c4.1-0.6,6.5-2.4,8.7-4.6l0.4-0.4c0.3-0.3,0.5-0.5,0.8-0.8c-0.1,0.6-0.1,1.1,0,1.5c0.8,3.7,3.1,4.4,5.3,4.4h1
	c1.6-0.1,3.3-0.6,4.9-1.5c0,0.5,0.3,1,0.8,1.3c0.2,0.1,0.4,0.1,0.6,0.1c0.5,0,1-0.3,1.3-0.8l4.8-10.4c0.7,0.6,1.4,1.1,2.2,1.3
	c0.8,0.3,1.6,0.4,2.5,0.4c0.8,0,1.5-0.1,2.3-0.4c-1,2.4-2.1,6.9,0.1,8.9c0.6,0.6,1.4,0.9,2.4,0.9c1.1,0,2.4-0.4,3.8-1.2
	c0.8-0.4,1.6-0.9,2.5-1.5c-0.3,0.6,0,1.4,0.6,1.8c0.2,0.1,0.4,0.2,0.6,0.2c0.5,0,1-0.2,1.3-0.7l1.5-2.5c1-1.5,2.5-3.4,3.1-4.1
	c5.5-5.9,9.3-9.8,11.8-9.9c0.2,0,0.2,0,0.2,0s0.9,1.7-3.7,9.3c-0.6,0.9-1.2,1.9-1.8,2.8c-0.2,0.3-0.4,0.7-0.6,1
	c-0.1,0.1-0.2,0.3-0.3,0.4c0,0,0,0.1-0.1,0.1c-0.3,0.4-0.6,0.9-0.8,1.3c-0.4,0.6-0.2,1.5,0.4,1.9c0.6,0.4,1.5,0.2,1.9-0.4
	c0.4-0.6,0.8-1.2,1.2-1.8c1-1.4,1.8-2.7,2.5-3.9c1.9-2.9,3.9-5.6,6.4-7.9c4-3.6,5.6-3.7,6.1-3.6c0.1,0,0.4,0.1,0.6,0.8
	c0.3,0.9-0.9,2.8-1.6,3.9c-0.2,0.4-0.5,0.7-0.6,1c-0.2,0.3-0.4,0.7-0.7,1.2c-1.8,2.9-4.9,7.7-1.1,10.6c0.9,0.7,2.1,1,3.4,1
	c0.3,0,0.6,0,0.9-0.1c1.6-0.2,2.9-1,4-1.7c0.3-0.2,0.7-0.5,1.2-0.9c-0.9,0.7-9.7,12.3-8.4,21.6c0.3,2.2,2.6,4.8,4.7,2.5
	c3.4-3.8,9.3-21.3,9.1-21.5c0.2,0.1,0.3,0.3,0.5,0.4c1.4,1,3.2,1.1,4.9,0.4c4.2-1.8,8-6.8,9.3-10.7
	C281.6,23.2,282.1,18.6,279.7,16.7z M187.1,29l-0.4,0.4c-2,1.9-4.3,4-7,4.2c-0.1,0-0.1,0-0.2,0c-0.5,0-0.7-0.2-0.8-0.4
	c-0.5-0.7-0.5-2.5,0-4c0.8-2.2,2.4-4.5,4.3-6.3c1.1-1,4.4-4,7.1-4c0.5,0,1,0.1,1.4,0.3c1.1,0.5,1.3,1.1,1.4,1.4
	C193.2,23.1,188.6,27.5,187.1,29z M255.6,55.5c-0.7-0.8-0.8-3.2-0.2-5.6c1.2-4.8,2.6-7.7,8.4-16.1C262.2,38.9,256,55.3,255.6,55.5z
	 M278.1,25c-1,3.2-4.4,7.5-7.7,8.9c-0.9,0.4-1.6,0.3-2.3-0.1c-0.4-0.3-0.8-0.7-1-1.3c0.8-2.6,1.5-5.1,2.2-7.4
	c1.6-2.2,3.3-4.2,5.7-5.6c1.4-0.8,2.5-1.1,3-0.7C278.8,19.6,278.9,22.6,278.1,25z M366,14.1c0.2,0,0.4,0,0.7,0
	c1.7-0.1,3.3-0.5,4.7-1.1c0.7-0.3,1.4-0.6,1.9-1c0.4-0.3,0.9-0.9,1-1.3c0-0.1-0.1-0.3-0.2-0.4c-0.1-0.1-0.3-0.1-0.4-0.1
	c-0.4,0-1,0.3-1.3,0.5l-0.1,0.1c-0.2,0.1-0.4,0.2-0.7,0.3c-0.1,0-0.3,0.1-0.4,0.2c-0.8,0.4-1.7,0.6-2.5,0.8
	c-0.6,0.1-1.2,0.2-1.7,0.2c-2,0-3.7-0.8-4.8-2.2C359.9,7,360.6-1.3,361.6-4l0.1-0.2L362-4c0.1,0.2,0.2,0.3,0.4,0.5
	c0.3,0.4,1,1.4,1.7,2.4c0.9,1.2,1.8,2.5,2,2.8c0.5,0.6,1.3,1.3,2,1.2c0.3-0.1,1-0.3,1.3-1.2c0.2-0.5,2.1-4.6,2.8-5.7l0,0
	c0.4-0.6,0.9-1.4,1.1-1.7l0.1-0.1l0.1,0.2c0.1,0.2,0.3,0.4,0.3,0.5c0.1,0.1,0.1,0.1,0.1,0.2c0.6,0.9,3,5.3,3.8,8.6
	c0.1,0.5,0.6,0.9,1.2,0.9c0.1,0,0.2,0,0.3,0c0.7-0.2,1-0.8,0.9-1.5c-1.1-5.3-4.3-9.5-4.3-9.6c-0.3-0.4-1.2-1.7-2.6-1.7
	c-0.2,0-0.4,0-0.7,0.1c-1.8,0.5-3.9,5.2-4.7,7l-0.4,0.8l-0.2-0.2c-0.2-0.2-0.4-0.5-0.5-0.7c-0.2-0.3-3.2-4.5-3.6-4.9l0,0
	c-0.2-0.2-0.7-0.8-1.5-0.8h-0.1c-0.8,0-1.4,0.6-1.9,1.6c-1.6,3.4-2.3,13.2,0.6,17.1C361.3,13.1,363.5,14.1,366,14.1z M364.3,3
	c-1,0.2-1.5,1.2-1.6,2.1c0,0.4-0.1,1.2,0.3,1.3c0.6,0.1,0.8-0.9,1.3-1c0.7-0.2,1.2,0.3,1.7,0.8c0.1,0.1,0.1,0.1,0.2,0.2
	c0.9,0.9,0.8-0.9,0.5-1.4C366.4,4,365.7,2.7,364.3,3z M371.8,2c-1,0.2-1.7,1.5-1.8,2.4c-0.1,0.3-0.1,0.7-0.1,1.1
	c0.2,0.7,0.8,0.2,1.2-0.2c0.1-0.1,0.1-0.2,0.2-0.2c0.4-0.7,0.9-1.2,1.8-1.3c0.5-0.1,1.5-0.3,1.1-1C373.7,2,372.5,1.9,371.8,2z
	 M351.2,9c0.8,0.2,4.7-0.3,5.2-0.9c1-1.1-0.9-1-1.6-1c-1,0.1-1.9,0.4-2.8,0.8C351.6,8.1,350.1,8.7,351.2,9z M352.1,12.8
	c0.4,0.3,1.1-0.3,1.4-0.5c0.6-0.4,1.2-0.7,1.8-0.9c0.7-0.3,3.4-0.3,2.2-1.6C356.2,8.1,351.8,12.5,352.1,12.8z M377.3,6.5
	c0.5,1.3,3.8,0.6,4.9,0.3c0.3-0.1,0.6-0.2,0.9-0.3c1.1-0.5-0.3-0.6-0.7-0.7c-1-0.1-1.9-0.1-2.9-0.2C378.7,5.5,376.6,4.9,377.3,6.5z
	 M377,7.6c-0.7,0-1.9,0.5-1.3,1.3c0.3,0.4,0.8,0.4,1.2,0.5c0.8,0.2,1.6,0.6,2.3,1.1c0.5,0.3,0.9,0.6,1.3,0.9
	c0.2,0.2,0.3,0.4,0.6,0.4c0.3-0.7-1-2.1-1.4-2.6C379,8.5,378,7.7,377,7.6z M278.5,53.2v-7.8h2.7c0.9,0,1.6,0.2,2,0.5
	c0.5,0.4,0.7,0.9,0.7,1.6c0,0.4-0.1,0.7-0.3,1s-0.5,0.5-0.8,0.7c0.4,0.1,0.7,0.3,1,0.6c0.2,0.3,0.3,0.7,0.3,1.1
	c0,0.7-0.2,1.3-0.7,1.7s-1.1,0.6-2,0.6C281.4,53.2,278.5,53.2,278.5,53.2z M279.9,48.6h1.3c0.4,0,0.8-0.1,1-0.3s0.4-0.5,0.4-0.8
	c0-0.4-0.1-0.7-0.3-0.8c-0.2-0.2-0.6-0.3-1-0.3H280L279.9,48.6C280,48.6,279.9,48.6,279.9,48.6z M279.9,49.6V52h1.5
	c0.4,0,0.8-0.1,1-0.3s0.4-0.5,0.4-0.9c0-0.8-0.4-1.2-1.2-1.2H279.9z M290,49.7h-3.2v2.4h3.8v1.1h-5.1v-7.8h5.1v1.1h-3.7v2.2h3.2
	L290,49.7L290,49.7z M297.4,46.4H295v6.7h-1.3v-6.7h-2.4v-1.1h6.2v1.1H297.4z M303,49.7h-3.2v2.4h3.8v1.1h-5.1v-7.8h5.1v1.1h-3.7
	v2.2h3.2L303,49.7L303,49.7z M306,50.3v2.9h-1.4v-7.8h3c0.9,0,1.6,0.2,2.1,0.7s0.8,1.1,0.8,1.8c0,0.8-0.3,1.4-0.8,1.8
	s-1.2,0.6-2.1,0.6C307.6,50.3,306,50.3,306,50.3z M306,49.2h1.6c0.5,0,0.9-0.1,1.1-0.3c0.3-0.2,0.4-0.6,0.4-1s-0.1-0.8-0.4-1
	c-0.3-0.3-0.6-0.4-1.1-0.4h-1.7L306,49.2L306,49.2z M316.5,45.3h1.4v7.8h-1.4v-5.6l-3.4,5.6h-1.4v-7.8h1.4v5.6L316.5,45.3z
	 M325.7,53.2h-1.4v-3.5h-3.5v3.5h-1.4v-7.8h1.4v3.3h3.5v-3.3h1.4V53.2z M331.8,51.3h-3l-0.6,1.8h-1.4l3-7.8h1.2l3,7.8h-1.4
	L331.8,51.3z M329.1,50.3h2.3l-1.1-3.2L329.1,50.3z M336.1,50.3v2.9h-1.4v-7.8h3c0.9,0,1.6,0.2,2.1,0.7s0.8,1.1,0.8,1.8
	c0,0.8-0.3,1.4-0.8,1.8s-1.2,0.6-2.1,0.6C337.7,50.3,336.1,50.3,336.1,50.3z M336.1,49.2h1.6c0.5,0,0.9-0.1,1.1-0.3
	c0.3-0.2,0.4-0.6,0.4-1s-0.1-0.8-0.4-1c-0.3-0.3-0.6-0.4-1.1-0.4h-1.6V49.2z M348,53.2h-1.4v-3.5h-3.5v3.5h-1.4v-7.8h1.4v3.3h3.5
	v-3.3h1.4V53.2z M354,51.3h-3l-0.6,1.8H349l3-7.8h1.2l3,7.8h-1.4L354,51.3z M351.4,50.3h2.3l-1.1-3.2L351.4,50.3z M360.8,53.2v-2.9
	h-1.5l-1.5,2.9h-1.5l1.7-3.3c-0.9-0.4-1.4-1.1-1.4-2.1c0-0.7,0.2-1.3,0.7-1.7s1.2-0.6,2.1-0.6h2.7v7.8h-1.3L360.8,53.2L360.8,53.2z
	 M358.1,47.8c0,0.4,0.1,0.8,0.4,1c0.2,0.2,0.6,0.4,1.1,0.4h1.3v-2.8h-1.3c-0.5,0-0.9,0.1-1.1,0.4C358.2,47,358.1,47.4,358.1,47.8z
	 M368.9,49.8H368v3.4h-1.4v-7.8h1.4v3.3h0.7l2.3-3.3h1.7l-2.7,3.7l2.9,4.1h-1.6L368.9,49.8z M379.8,45.3v7.8h-1.4v-6.7H376l-0.1,3
	c-0.1,0.9-0.2,1.7-0.3,2.2c-0.2,0.5-0.4,0.9-0.8,1.1c-0.3,0.2-0.8,0.4-1.4,0.4h-0.3V52h0.2c0.3,0,0.6-0.1,0.7-0.3
	c0.1-0.2,0.3-0.5,0.4-0.9c0.1-0.4,0.1-1,0.2-1.7l0.2-3.8H379.8z M386.2,45.3h1.4v7.8h-1.4v-5.6l-3.4,5.6h-1.4v-7.8h1.4v5.6
	L386.2,45.3z M395.4,53.2h-1.3v-3.5h-3.5v3.5h-1.4v-7.8h1.4v3.3h3.5v-3.3h1.4L395.4,53.2L395.4,53.2z M401.8,45.3h1.4v7.8h-1.4v-5.6
	l-3.4,5.6H397v-7.8h1.4v5.6L401.8,45.3z M407.1,49.8h-0.9v3.4h-1.4v-7.8h1.4v3.3h0.7l2.3-3.3h1.7l-2.7,3.7l2.9,4.1h-1.6L407.1,49.8z
	 M416.3,51.3h-3l-0.6,1.8h-1.4l3-7.8h1.2l3,7.8h-1.4L416.3,51.3z M413.6,50.3h2.3l-1.1-3.2L413.6,50.3z"/>
</svg>
