<svg width="200" height="95" viewBox="0 0 200 95" fill="none" xmlns="http://www.w3.org/2000/svg">
<path d="M135.362 85.959C134.446 86.6461 133.377 87.1804 132.384 87.7911C131.01 88.6308 129.789 89.3942 128.873 89.7758C127.346 90.3865 125.896 90.4629 125.056 89.8522C124.522 89.4705 124.217 88.7071 124.293 87.7148C124.369 85.8827 125.82 84.2033 127.27 82.6003C127.804 81.9896 128.415 81.3026 128.873 80.6155C129.407 79.9285 131.926 76.1881 130.094 73.7453C129.407 72.8293 128.491 72.2949 127.27 72.2949C124.064 72.1423 119.865 75.73 117.957 77.5621C118.262 75.8064 117.957 74.814 117.575 74.127C117.041 73.211 115.972 72.6766 114.827 72.7529C112.537 72.9056 110.171 74.585 107.346 77.4094L107.575 77.0278C109.331 73.898 109.56 73.3636 109.636 72.982C109.789 72.2186 109.255 71.4552 108.415 71.3789C107.728 71.3026 107.041 71.7606 106.812 72.4476C106.812 72.5239 106.736 72.6003 106.659 72.7529L105.056 75.73C104.446 76.7987 103.758 78.0201 103.148 79.1652C102.613 80.1575 96.8883 90.8445 96.8119 90.9972L96.5066 91.5316C96.1249 92.2186 96.4303 93.0583 97.1173 93.44C97.3463 93.5163 97.499 93.5926 97.728 93.5926C98.2623 93.5926 98.7967 93.3636 99.0257 92.8293L99.9417 91.0736C100.858 89.5468 102.766 86.6461 103.377 86.0354C108.72 79.8522 112.461 75.73 114.98 75.5774C115.056 75.5774 115.133 75.5774 115.133 75.5774C115.285 75.8827 115.896 78.4018 109.178 89.3178C109.026 89.5468 108.873 89.6995 108.72 89.9285C108.262 90.5392 108.415 91.4552 109.026 91.9132C109.636 92.3713 110.476 92.2186 110.934 91.6842C111.01 91.6079 111.163 91.4552 111.239 91.3789C111.316 91.2262 111.392 91.0736 111.468 90.9209C112.079 90.0812 112.613 89.2415 113.224 88.4781C115.056 85.8064 116.736 82.982 118.873 80.6155C120.629 78.6308 124.98 75.043 127.041 75.1957C127.423 75.1957 127.575 75.3484 127.652 75.501C127.957 75.959 127.499 77.5621 126.43 79.0125C126.049 79.5468 125.514 80.1575 124.98 80.7682C123.3 82.6766 121.468 84.814 121.316 87.6384C121.239 89.6232 121.926 91.2262 123.3 92.2186C124.98 93.3636 127.423 93.44 129.865 92.4476C131.01 91.9896 132.308 91.1499 133.758 90.2339C134.064 90.0048 134.446 89.8522 134.751 89.6232C135.209 89.2415 135.133 89.3942 135.133 88.9361C135.438 87.9438 135.209 86.8751 135.362 85.959Z" fill="black"/>
<path d="M113.53 68.2492C113.606 68.2492 113.682 68.2492 113.759 68.2492L127.804 65.8064C128.568 65.6538 129.102 64.9667 128.949 64.2034C128.797 63.44 128.11 62.9057 127.346 63.0583L113.301 65.5011C112.537 65.6538 112.003 66.3408 112.156 67.1041C112.156 67.7912 112.843 68.3255 113.53 68.2492Z" fill="black"/>
<path fill-rule="evenodd" clip-rule="evenodd" d="M10.8279 73.16C9.99098 73.6997 9.30981 74.4554 8.9316 75.2409C8.61154 75.9057 7.81319 76.1851 7.14845 75.865C6.4837 75.545 6.20428 74.7466 6.52434 74.0819C7.1385 72.8063 8.17488 71.6918 9.37995 70.9147C10.5782 70.1419 12.0353 69.6453 13.523 69.7394C15.2585 69.8127 16.2255 71.0027 16.6734 72.1543C17.105 73.2642 17.1614 74.5332 17.0742 75.4636C16.7433 79.6475 14.8622 83.5334 13.1264 87.0806C13.1245 87.0844 13.1226 87.0882 13.1208 87.0919C13.1172 87.0991 13.1135 87.1062 13.1098 87.1133C13.0608 87.2068 13.0113 87.3018 12.9611 87.398C12.186 88.8844 11.2573 90.6652 9.76052 91.9957C8.19653 93.3859 5.79111 94.4661 3.39599 93.633C2.15892 93.2028 1.17133 92.2553 0.637363 91.1482C0.0994092 90.033 -0.0322583 88.6218 0.690254 87.3574C0.934684 86.9296 1.39471 86.6711 1.88719 86.6848C2.37966 86.6985 2.82464 86.9821 3.04497 87.4227C3.21302 87.7588 3.35818 88.0907 3.48831 88.3881L3.49384 88.4007C3.62947 88.7108 3.74976 88.985 3.88467 89.2548C4.14179 89.7691 4.0361 90.3699 3.66461 90.7662C3.8502 90.9159 4.05709 91.0342 4.27372 91.1096C5.39006 91.4979 6.8014 91.0513 7.9855 89.9988C9.10434 89.0043 9.82431 87.6288 10.6628 86.0269C10.6866 85.9814 10.7105 85.9357 10.7345 85.8899C12.5055 82.2706 14.1297 78.8368 14.4115 75.244L14.4134 75.2218C14.4773 74.5501 14.4178 73.7257 14.1833 73.1227C13.965 72.5612 13.7164 72.4201 13.4037 72.4086C13.3906 72.4081 13.3774 72.4074 13.3643 72.4065C12.5686 72.3535 11.6665 72.6193 10.8279 73.16Z" fill="black"/>
<path fill-rule="evenodd" clip-rule="evenodd" d="M35.8623 74.4433C35.1463 74.2723 34.4164 74.5075 34.1228 74.8113C32.1611 76.9431 29.6412 79.5075 27.2431 81.9479C26.401 82.805 25.5739 83.6467 24.7912 84.449C23.2746 86.0038 21.9271 87.4083 20.9381 88.5094C20.4423 89.0615 20.0526 89.5197 19.7816 89.8722C19.6457 90.049 19.5527 90.1823 19.4946 90.2761C19.4809 90.2982 19.4707 90.3155 19.4635 90.3283C19.4533 90.355 19.4431 90.3815 19.433 90.4079C19.1783 91.07 18.4507 91.4176 17.7757 91.1997C17.1007 90.9818 16.7137 90.2744 16.8942 89.5884C16.924 89.4753 16.9644 89.3671 17.0091 89.2668C17.9053 86.9222 19.1211 83.4747 20.1606 80.4708C19.9174 80.7417 19.6699 81.0177 19.4195 81.2971C16.6943 84.3378 13.6592 87.7527 12.3421 89.3332C11.8698 89.9 11.0275 89.9766 10.4607 89.5043C9.8939 89.0319 9.81732 88.1896 10.2896 87.6228C11.6443 85.9972 14.7161 82.5419 17.4299 79.5139C18.7909 77.9953 20.0682 76.5771 21.0051 75.5387C21.4736 75.0195 21.8571 74.5951 22.1236 74.3005L22.5391 73.8412C22.5392 73.8411 22.5395 73.8407 23.5296 74.7376C24.796 75.1628 24.796 75.1629 24.796 75.163L24.6441 75.6139C24.5462 75.904 24.4043 76.3237 24.2281 76.8428C23.8757 77.8809 23.3858 79.3169 22.8362 80.9084C22.5399 81.7665 22.2256 82.6714 21.9057 83.5846C22.222 83.2577 22.5471 82.9233 22.8787 82.5834C23.6792 81.7628 24.5182 80.9089 25.3677 80.0444C27.7596 77.6102 30.2344 75.0917 32.1648 72.9934L32.1782 72.9791C33.262 71.8351 35.0469 71.5015 36.4832 71.8447C37.2384 72.0252 38.0016 72.4132 38.5748 73.0829C39.1627 73.7697 39.4722 74.6627 39.4452 75.6887C39.4258 76.4263 38.8122 77.0084 38.0746 76.989C37.3371 76.9696 36.755 76.356 36.7744 75.6184C36.7855 75.1941 36.6657 74.9612 36.545 74.8202C36.4097 74.6621 36.1854 74.5205 35.8623 74.4433ZM23.5296 74.7376L24.796 75.163C24.9973 74.5634 24.7507 73.9047 24.205 73.5849C23.6593 73.2652 22.9637 73.3725 22.5391 73.8412L23.5296 74.7376Z" fill="black"/>
<path fill-rule="evenodd" clip-rule="evenodd" d="M33.6344 73.5641C34.156 74.0858 34.156 74.9316 33.6344 75.4533C33.6346 75.4531 33.6344 75.4533 33.6339 75.4539C33.6288 75.4596 33.5918 75.5009 33.5206 75.5999C33.447 75.7023 33.3558 75.8396 33.2485 76.0132C33.0338 76.3601 32.7752 76.8177 32.4887 77.3629C31.9165 78.452 31.2556 79.8476 30.64 81.3214C30.0233 82.7976 29.4625 84.3276 29.0811 85.6895C28.6871 87.0968 28.5314 88.1667 28.5983 88.7949L28.5992 88.8033L28.5991 88.8033C28.6659 89.4711 28.7877 90.0119 29.0254 90.459C29.4687 91.0994 30.5267 91.4497 31.64 91.2191C33.1843 90.8624 34.6175 89.9926 36.0553 88.846C36.7725 88.274 37.4704 87.6503 38.1753 87.0071C38.3202 86.8749 38.4661 86.7412 38.6126 86.607C39.1679 86.0981 39.7325 85.5807 40.2913 85.0995C40.8504 84.6181 41.6939 84.681 42.1753 85.2401C42.6567 85.7992 42.5938 86.6427 42.0347 87.1241C41.5103 87.5757 40.9856 88.0565 40.4344 88.5614C40.2838 88.6994 40.1312 88.8392 39.9762 88.9808C39.264 89.6305 38.5116 90.3045 37.7211 90.9349C36.1473 92.1899 34.34 93.3414 32.2248 93.8261L32.2016 93.8312C30.4382 94.2025 28.0084 93.8065 26.759 91.8757C26.7428 91.8505 26.7274 91.8249 26.7128 91.7987C26.2032 90.8813 26.025 89.91 25.941 89.0731C25.8182 87.9081 26.1013 86.4227 26.5083 84.9692C26.9285 83.4685 27.5318 81.8305 28.1746 80.2915C28.8186 78.75 29.5126 77.2831 30.1236 76.1202C30.4287 75.5395 30.7188 75.0238 30.9765 74.6074C31.2144 74.2228 31.4821 73.8272 31.7451 73.5641C32.2668 73.0424 33.1127 73.0424 33.6344 73.5641Z" fill="black"/>
<path fill-rule="evenodd" clip-rule="evenodd" d="M187.098 75.6122C185.614 75.5062 183.927 76.6239 183.198 78.0833C182.868 78.7432 182.065 79.0106 181.405 78.6807C180.745 78.3507 180.478 77.5483 180.808 76.8884C181.908 74.6887 184.487 72.7567 187.27 72.9459C188.89 73.0225 189.777 74.1374 190.185 75.1902C190.577 76.2022 190.632 77.3506 190.589 78.1667C190.588 78.1819 190.587 78.1971 190.585 78.2123C190.492 79.2903 190.083 80.5876 189.574 81.8673C189.053 83.1734 188.385 84.5659 187.697 85.8673C187.009 87.1704 186.293 88.4004 185.671 89.384C185.079 90.3217 184.499 91.1531 184.092 91.5602C184.071 91.5812 184.05 91.6014 184.027 91.621C182.621 92.8517 180.369 93.8561 178.203 93.0979C177.063 92.699 176.165 91.7981 175.671 90.7965C175.178 89.7978 174.988 88.4762 175.644 87.2951C176.002 86.6502 176.816 86.4178 177.461 86.7761C178.106 87.1344 178.338 87.9477 177.98 88.5926C177.872 88.7856 177.835 89.1434 178.067 89.6141C178.298 90.0819 178.698 90.4406 179.085 90.5761C179.961 90.8827 181.2 90.5261 182.229 89.6441C182.411 89.4486 182.83 88.878 183.413 87.9565C183.996 87.0341 184.677 85.8643 185.335 84.6197C185.993 83.3733 186.617 82.0703 187.091 80.8787C187.571 79.6739 187.859 78.6801 187.922 78.0028C187.952 77.3743 187.891 76.6639 187.694 76.1555C187.512 75.6861 187.336 75.6227 187.138 75.6145C187.125 75.6139 187.112 75.6132 187.098 75.6122Z" fill="black"/>
<path fill-rule="evenodd" clip-rule="evenodd" d="M194.241 74.0359C196.68 72.6423 199.664 74.1734 199.899 76.9933C199.96 77.7285 199.414 78.3742 198.678 78.4355C197.943 78.4967 197.298 77.9504 197.236 77.2151C197.166 76.3713 196.334 75.9177 195.567 76.3551C193.773 77.3853 191.981 79.3516 190.69 81.6827C189.399 84.015 188.712 86.5236 188.904 88.5703C188.974 89.1917 189.098 89.6979 189.309 90.0441C189.663 90.5637 190.26 90.9256 191.075 91.0423C191.49 91.0717 192.012 91.0693 192.505 91.0076C193.043 90.9403 193.403 90.8197 193.576 90.71C193.585 90.7037 193.595 90.6975 193.605 90.6915C194.288 90.2817 194.913 89.7977 195.61 89.2558C196.192 88.8029 197.032 88.9078 197.485 89.4902C197.938 90.0725 197.833 90.9118 197.25 91.3648L197.224 91.3852C196.557 91.9038 195.821 92.4766 194.994 92.9744C194.329 93.3917 193.514 93.5741 192.836 93.6588C192.124 93.7479 191.403 93.7473 190.831 93.7033C190.807 93.7014 190.782 93.6988 190.757 93.6955C189.309 93.5024 187.938 92.8052 187.074 91.5093C187.067 91.4984 187.06 91.4874 187.053 91.4763C186.507 90.6034 186.329 89.5928 186.247 88.8548L186.245 88.8339C185.982 86.0733 186.899 83.0139 188.353 80.3883C189.81 77.7581 191.91 75.3736 194.238 74.0373L194.241 74.0359Z" fill="black"/>
<path fill-rule="evenodd" clip-rule="evenodd" d="M48.7038 71.6721C49.3851 72.1689 49.5347 73.1239 49.0379 73.8052C47.7737 75.5389 46.3527 78.005 45.1635 80.5786C43.9684 83.165 43.0603 85.7463 42.748 87.721C42.6759 88.1899 42.6472 88.555 42.6798 88.8376C42.7097 89.0971 42.7755 89.1578 42.7951 89.1755C42.828 89.2051 42.8597 89.2362 42.8899 89.2686C42.9921 89.3781 43.2157 89.5106 43.7462 89.4663C44.276 89.4222 44.9028 89.2075 45.452 88.9037C47.3236 87.8319 48.7642 86.2079 50.3106 84.4297C51.5046 83.023 52.8293 80.8388 54.2066 78.4887C54.373 78.2048 54.5402 77.9183 54.7079 77.6311C55.8875 75.6105 57.089 73.5522 58.179 72.0754C58.677 71.4008 59.6259 71.254 60.3044 71.7467C60.983 72.2394 61.1371 73.1871 60.6497 73.8695C59.7839 75.0816 59.1082 76.44 58.4158 77.9292C58.304 78.1697 58.1913 78.4146 58.0771 78.6628C57.5016 79.9137 56.8876 81.2483 56.151 82.5213C55.7971 83.1428 55.0525 85.0737 54.7721 86.9398C54.6317 87.8744 54.6334 88.6373 54.7622 89.1501C54.8786 89.6137 55.0265 89.6617 55.1132 89.6877C55.357 89.7608 55.6556 89.7173 56.4601 89.4783C57.487 89.0623 58.5022 88.5217 59.5714 87.9266C59.7671 87.8177 59.9655 87.7065 60.1663 87.5939C61.0582 87.0937 61.996 86.5677 62.9421 86.111C63.7014 85.7444 64.6142 86.0628 64.9807 86.8221C65.3473 87.5815 65.0289 88.4942 64.2696 88.8608C63.4161 89.2728 62.5793 89.7419 61.6925 90.239C61.4835 90.3561 61.2717 90.4748 61.0563 90.5947C59.9525 91.209 58.7735 91.8418 57.5316 92.3385C57.4896 92.3553 57.4467 92.3703 57.4033 92.3833C57.3695 92.3935 57.3344 92.4041 57.2979 92.4152C56.6083 92.6243 55.4482 92.976 54.2359 92.6123C52.7958 92.1803 52.085 91.026 51.8007 89.8937C51.6139 89.1499 51.5832 88.3383 51.6357 87.5473C50.3495 88.9804 48.8521 90.4776 46.9588 91.5595L46.9427 91.5686C46.1197 92.0258 45.0706 92.42 43.9998 92.5092C42.9438 92.5972 41.6642 92.3939 40.7025 91.3992C39.9962 90.737 39.7291 89.9038 39.6465 89.1876C39.5646 88.4784 39.6502 87.7758 39.7305 87.2537L39.7314 87.2478L39.7314 87.2478C40.1066 84.8717 41.1447 81.9963 42.3917 79.2978C43.6452 76.5851 45.1631 73.9366 46.5707 72.0062C47.0675 71.3249 48.0225 71.1754 48.7038 71.6721Z" fill="black"/>
<path fill-rule="evenodd" clip-rule="evenodd" d="M87.9538 56.3176C88.1735 59.2437 87.046 62.0798 85.6499 64.5453C84.5257 66.5306 83.1311 68.432 81.9377 70.0593C81.6455 70.4576 81.3654 70.8395 81.1043 71.2022L81.0989 71.2097L81.0989 71.2097C80.3982 72.1706 79.6765 73.1319 78.9364 74.0882C79.4995 74.4023 79.9294 74.8832 80.1985 75.3542C80.2044 75.3645 80.2101 75.3748 80.2158 75.3852C81.7507 78.2225 81.5428 81.6809 80.5055 84.6579C79.4653 87.6433 77.4909 90.4496 75.0526 92.0456L75.0435 92.0515C73.023 93.3536 70.473 93.9025 68.18 93.3942C65.8056 92.8679 63.7636 91.2056 63.0407 88.314C62.4111 85.7958 62.8776 83.2668 63.3368 81.2003C64.7613 74.7899 67.6767 68.827 71.0022 63.3361L71.0034 63.334C72.2182 61.3354 73.9737 58.7923 76.1053 56.7012C78.2052 54.6413 80.8733 52.8205 83.9123 52.6784C84.9488 52.6249 85.9678 52.8959 86.7511 53.608C87.5286 54.3148 87.896 55.2946 87.9538 56.3176ZM76.8637 76.693C75.3654 78.5238 73.807 80.3171 72.2077 82.0336C70.488 83.9092 68.6319 85.6934 66.3397 87.1669C66.2158 87.2466 66.0847 87.306 65.9503 87.3462C65.9665 87.4222 65.9841 87.498 66.0029 87.5735C66.4251 89.262 67.5128 90.1188 68.8407 90.4131C70.2484 90.7251 71.9709 90.3973 73.3847 89.4879C75.1432 88.335 76.7546 86.1429 77.6221 83.6532C78.49 81.1622 78.5141 78.6754 77.5408 76.8579C77.5258 76.8331 77.5107 76.8128 77.4971 76.797C77.275 76.8081 77.0601 76.7705 76.8637 76.693ZM65.959 83.71C67.4006 82.6185 68.6859 81.3569 69.9612 79.9655L69.9697 79.9564C73.0517 76.6489 75.9893 73.0342 78.629 69.4143C78.9198 69.0106 79.2203 68.6004 79.5256 68.1839C80.7108 66.5667 81.9666 64.8531 82.9929 63.0407C84.2848 60.7592 85.0641 58.5636 84.908 56.5341C84.907 56.5219 84.9062 56.5096 84.9056 56.4973C84.8835 56.0768 84.7544 55.9194 84.6971 55.8673C84.6419 55.8172 84.4798 55.7062 84.0677 55.7279L84.0578 55.7284L84.0578 55.7284C82.137 55.817 80.1502 57.0106 78.2436 58.881C76.368 60.7208 74.7649 63.0244 73.6134 64.9188C70.3742 70.2673 67.641 75.9071 66.3175 81.8627C66.1774 82.4931 66.0524 83.1087 65.959 83.71Z" fill="black"/>
<path fill-rule="evenodd" clip-rule="evenodd" d="M164.894 79.234C166.308 79.8337 167.115 80.9546 167.437 82.1866C167.747 83.3744 167.606 84.6413 167.234 85.7108C167.23 85.7219 167.226 85.733 167.222 85.744C165.752 89.6355 162.059 92.5624 157.978 93.0851C156.871 93.2327 155.831 93.1151 154.993 92.5787C154.123 92.0221 153.689 91.1558 153.541 90.2687C153.263 88.6061 153.923 86.5901 154.88 84.8631C155.864 83.0865 157.319 81.3279 159.001 80.1718C160.672 79.0235 162.795 78.333 164.894 79.234ZM156.433 90.3282C156.553 90.4052 156.884 90.536 157.627 90.4364L157.635 90.4353L157.635 90.4353C160.722 90.0413 163.587 87.7859 164.716 84.8168C164.95 84.1355 164.998 83.4245 164.851 82.861C164.715 82.3384 164.417 81.9335 163.849 81.693L163.841 81.6898L163.841 81.6898C162.925 81.2957 161.797 81.4924 160.515 82.3735C159.243 83.2474 158.046 84.6615 157.217 86.1578C156.361 87.7037 156.048 89.0608 156.176 89.829C156.231 90.1573 156.344 90.2709 156.433 90.3282Z" fill="black"/>
<path fill-rule="evenodd" clip-rule="evenodd" d="M163.541 73.0213C164.11 73.4914 164.19 74.3335 163.719 74.9021C160.533 78.7554 158.01 83.0558 156.151 87.6585C156.005 88.0626 155.902 88.3925 155.866 88.676C155.831 88.9542 155.877 89.056 155.896 89.0886C156.276 89.7213 156.071 90.5419 155.438 90.9214C154.806 91.301 153.985 91.0959 153.605 90.4632C153.167 89.7325 153.137 88.9564 153.216 88.3377C153.294 87.7292 153.493 87.1498 153.648 86.724C153.653 86.7095 153.659 86.6952 153.665 86.6809C155.622 81.8261 158.287 77.279 161.66 73.1995C162.131 72.6309 162.973 72.5511 163.541 73.0213Z" fill="black"/>
<path fill-rule="evenodd" clip-rule="evenodd" d="M177.94 73.2274C178.521 73.6818 178.624 74.5213 178.17 75.1026C174.979 79.1834 171.529 85.7807 170.497 88.3587C170.246 89.0039 170.224 89.7326 170.389 90.1959C170.465 90.4081 170.558 90.5107 170.631 90.5613C170.693 90.6048 170.834 90.6774 171.148 90.657C171.86 90.6052 172.648 90.2482 173.483 89.6345C174.309 89.0278 175.077 88.2479 175.743 87.5083C176.236 86.9599 177.081 86.9154 177.629 87.409C178.178 87.9025 178.222 88.7472 177.729 89.2956C177.02 90.0827 176.109 91.0203 175.065 91.7876C174.031 92.5471 172.759 93.2205 171.335 93.3222L171.328 93.3226L171.328 93.3226C170.499 93.3779 169.734 93.1932 169.102 92.7526C168.481 92.3189 168.092 91.7107 167.872 91.0927C167.446 89.8967 167.577 88.4903 168.011 87.3808L168.014 87.3714L168.014 87.3714C169.122 84.6023 172.693 77.7705 176.065 73.457C176.519 72.8758 177.359 72.773 177.94 73.2274Z" fill="black"/>
<path d="M150.094 88.8597C148.491 89.7757 147.652 89.852 147.346 89.623C146.736 89.0887 146.736 86.6459 147.652 84.1269C148.033 83.0582 149.178 80.6917 149.178 80.6917C149.865 79.3177 150.552 78.02 151.316 76.5696C151.774 75.8062 152.156 75.0429 152.537 74.2795C152.843 73.6688 152.614 72.9055 152.003 72.5238C151.392 72.2185 150.629 72.4475 150.247 73.0582C149.865 73.8215 149.407 74.5849 149.026 75.3482C148.339 76.6459 147.575 77.9436 146.888 79.3177C144.904 80.9971 143.224 81.5314 141.392 80.9971C140.858 80.8444 140.094 80.3101 139.713 79.7757L142.232 73.8978C142.537 73.2108 142.232 72.5238 141.545 72.2185C140.858 71.9131 140.171 72.2185 139.865 72.9055L133.835 87.0276C132.537 90.0811 132.003 91.6078 131.927 91.6841C131.927 91.6841 131.927 91.6841 132.003 91.6841C132.003 92.1421 132.308 92.6001 132.766 92.8291C132.919 92.9055 133.148 92.9055 133.301 92.9055C133.759 92.9055 134.217 92.6001 134.446 92.1421L138.568 82.3711C139.178 82.9055 139.942 83.2872 140.629 83.5162C141.392 83.7452 142.156 83.8215 142.919 83.8215C143.606 83.8215 144.369 83.6688 145.056 83.4398C144.217 85.7299 143.377 89.852 145.514 91.6841C146.125 92.2185 146.888 92.4475 147.728 92.4475C148.72 92.3711 149.865 91.9895 151.239 91.2261C151.774 90.9207 152.308 90.5391 152.919 90.1574C153.072 89.9284 156.125 85.0429 156.125 84.2032C153.988 86.1879 151.927 87.791 150.094 88.8597Z" fill="black"/>
<path fill-rule="evenodd" clip-rule="evenodd" d="M94.1819 69.4276C95.7107 69.1709 97.2818 69.5323 98.5348 70.8679C100.577 73.0356 100.822 75.9842 100.235 78.747C99.6454 81.5224 98.1756 84.3789 96.3708 86.7734C94.5735 89.1581 92.3321 91.2327 90.0785 92.3211C88.9464 92.8679 87.7217 93.2087 86.5029 93.1277C85.2392 93.0437 84.075 92.5095 83.1551 91.4813L83.1472 91.4725C81.2085 89.2717 81.3915 86.2108 82.0211 83.7325C82.6718 81.171 83.9318 78.6838 84.8888 77.0879C85.75 75.6264 87.828 73.0683 90.1862 71.3176C91.3642 70.4432 92.7454 69.6689 94.1819 69.4276ZM92.0063 73.7693C89.9975 75.2606 88.1848 77.507 87.5172 78.642L87.5104 78.6534C86.6357 80.1112 85.5314 82.3158 84.9806 84.4842C84.4087 86.7354 84.5524 88.4438 85.4345 89.4497C85.8113 89.8688 86.225 90.0491 86.7053 90.081C87.232 90.116 87.9193 89.9731 88.7505 89.5716C90.4234 88.7636 92.3137 87.0834 93.9324 84.9356C95.5437 82.7978 96.7742 80.3441 97.2484 78.1124C97.7252 75.8685 97.398 74.1136 96.3116 72.9608L96.3088 72.9579C95.8445 72.4627 95.3457 72.3284 94.6876 72.4389C93.9367 72.565 93.0135 73.0216 92.0063 73.7693Z" fill="black"/>
<path fill-rule="evenodd" clip-rule="evenodd" d="M174.418 78.4102C175.004 78.8588 175.115 79.6973 174.666 80.283C171.818 84.0019 168.05 87.2896 164.754 89.9724C164.182 90.4382 163.341 90.3519 162.875 89.7797C162.409 89.2075 162.496 88.366 163.068 87.9003C166.337 85.2396 169.898 82.115 172.545 78.6584C172.994 78.0727 173.832 77.9616 174.418 78.4102Z" fill="black"/>
<path d="M12.1375 46.9464C11.9085 46.87 11.6794 46.87 11.4504 46.87C11.4504 45.496 11.4504 44.0456 11.4504 42.6716C14.5039 41.1448 14.9619 41.6029 14.7329 46.183C14.3512 47.9387 13.6642 48.7021 12.1375 46.9464Z" fill="#32355E"/>
<path d="M139.389 45.7253C139.695 44.6566 140.076 43.5879 140.534 42.5192C141.145 41.1452 141.832 39.7711 142.595 38.4734H142.519C141.298 38.0154 140.611 38.7024 140.076 39.8475C138.931 42.3665 136.489 43.3589 134.198 44.5039C133.053 45.1146 131.527 45.7253 130.305 44.5039C129.16 43.3589 130 42.0612 130.305 40.9162C130.687 39.6184 131.221 38.2444 131.908 37.0994C133.435 34.5039 135.191 32.0612 136.794 29.4658C137.481 28.3971 139.008 27.0994 137.252 25.9543C135.649 24.8856 134.809 26.6413 134.046 27.71C132.366 30.0765 130.84 32.5192 129.313 35.0383C127.634 37.7864 125.572 40.0765 122.977 41.8322C121.679 42.7482 119.924 44.2749 118.626 43.2826C117.328 42.2902 118.55 40.3055 119.084 38.7787C120.458 35.0383 122.366 31.6032 124.656 28.3971C125.343 27.481 125.725 26.565 124.656 25.649C123.817 24.962 123.053 25.2673 122.519 25.9543C118.855 31.0688 115.42 36.4123 114.962 42.9009C114.733 46.2597 116.489 47.481 119.771 46.7177C122.214 46.1833 124.198 44.7329 126.336 43.5116C128.092 48.2444 130.153 49.2368 134.885 47.5574C135.954 47.1757 137.023 46.565 138.015 46.107C138.473 45.9543 138.855 45.4963 139.389 45.7253Z" fill="#201F22"/>
<path d="M12.1375 46.9465C13.2825 47.6336 14.1222 47.1755 14.7329 46.1068C15.3436 48.2442 16.0306 50.229 18.9313 50.3817C22.0611 50.5343 23.1298 48.4733 23.9695 46.1068C25.8016 40.916 26.6413 35.4198 28.9313 30.3817C33.1298 21.2977 39.3894 14.3511 49.2367 11.145C50 11.9084 50.3054 12.7481 49.771 13.8168C35.4199 19.313 30.6107 31.6794 27.5573 45.1145C26.6413 48.9313 25.0382 52.061 21.1451 53.5114C19.771 53.0534 18.2443 53.7404 16.8703 53.0534C14.0458 52.1374 12.3665 50.0763 12.1375 46.9465Z" fill="#222023"/>
<path d="M49.8473 13.8929C49.3129 13.0532 49.1603 12.2135 49.3129 11.2212C51.603 9.92346 53.8931 10.3051 56.1832 11.1448C55.4198 12.5952 53.9694 12.9769 52.5954 13.4349C51.6794 13.5876 50.7633 13.7403 49.8473 13.8929Z" fill="#31345E"/>
<path d="M16.9465 53.2059C18.3969 53.3585 19.8473 52.7479 21.2213 53.6639C19.771 53.7402 18.2442 54.5036 16.9465 53.2059Z" fill="#030404"/>
<path fill-rule="evenodd" clip-rule="evenodd" d="M56.5633 13.3281C57.0165 12.6001 57.496 11.8299 56.1833 11.145C55.8459 11.3038 55.4878 11.4368 55.1305 11.5695C54.1139 11.9471 53.1039 12.3221 52.5955 13.2824C52.2962 15.5271 51.508 17.6414 50.7207 19.7532C50.3032 20.8731 49.886 21.9922 49.5421 23.1298C48.9695 25.0192 48.3445 26.8895 47.7206 28.7562C45.8493 34.3561 43.9886 39.9237 43.5879 45.8778C43.2062 52.061 46.2596 53.8168 51.8321 50.916C55.4199 49.084 58.3207 46.9465 61.4505 44.3511C61.6082 44.7191 61.5577 45.1686 61.5079 45.6123C61.413 46.457 61.3205 47.2807 62.6718 47.4809C63.9776 47.6674 64.3717 46.7904 64.7618 45.9223C64.8506 45.7247 64.9392 45.5275 65.0383 45.3435C65.7253 44.0076 66.3932 42.6527 67.0612 41.2977C67.7291 39.9427 68.397 38.5878 69.0841 37.2519C70.9161 38.1679 72.5955 39.0076 74.5039 38.9313C75.8016 38.9313 76.336 39.084 76.0306 40.687C75.4963 43.6641 76.0306 46.4122 78.855 48.0152C81.6031 49.6183 84.4276 48.7786 86.7176 47.0992C91.7558 43.4351 95.1146 38.3969 95.9543 32.1374C96.4123 28.9313 95.878 25.6488 92.7482 23.8931C89.7543 22.1823 87.3595 23.9994 85.0665 25.7393C84.904 25.8626 84.7419 25.9856 84.5802 26.1069C83.7405 26.7175 82.9772 27.4809 82.3665 28.3206C80.9925 30.2289 79.6949 32.1371 78.3973 34.0454L78.397 34.0458C76.7176 36.4885 74.4276 36.3359 72.2138 35.3435C70.1557 34.4288 70.8806 33.3 71.5988 32.1816C71.8396 31.8066 72.0797 31.4329 72.2138 31.0687C72.5563 30.2696 72.9415 29.5132 73.3374 28.7356C73.4709 28.4733 73.6057 28.2085 73.7405 27.9389C73.7928 27.8343 73.8479 27.7275 73.9039 27.619C74.5011 26.4611 75.1932 25.1189 73.5879 24.3511C71.9983 23.5185 71.3845 25.2378 71.0021 26.3088L70.9925 26.3359C68.0154 34.6565 50.9161 51.6794 47.6337 48.7023C46.0651 47.2592 46.6625 45.1458 47.2216 43.1673C47.3428 42.7386 47.4622 42.3162 47.5573 41.9084C48.8888 35.7443 50.921 29.8033 52.9544 23.8588C54.0688 20.6012 55.1834 17.3426 56.1833 14.0458C56.2603 13.8146 56.4103 13.5738 56.5633 13.3281ZM88.7024 26.8703C83.1299 30.4581 80.0001 35.6489 78.8551 41.6031C79.0078 44.6565 79.8475 46.2596 82.6719 45.5726C88.0917 44.5039 94.1986 33.9695 92.5192 28.626C91.8322 26.4123 90.6108 25.6489 88.7024 26.8703Z" fill="#211F22"/>
<path fill-rule="evenodd" clip-rule="evenodd" d="M130.305 0H121.145C111.45 1.45038 107.939 6.41221 110.534 15.4198C111.065 17.4825 111.732 19.4996 112.465 21.7171C112.681 22.372 112.903 23.0443 113.13 23.7405C110 22.5954 107.404 23.2824 105.191 25.1145C100.458 28.9313 97.1755 33.8168 95.8014 39.771C95.1144 42.7481 95.1907 45.7252 98.0152 47.6336C100.916 49.542 103.817 48.626 106.488 46.8702C114.885 41.2977 118.626 30.1527 115.343 20.5344C115.204 20.1694 115.061 19.8044 114.918 19.4385C114.432 18.1974 113.941 16.9459 113.588 15.6489C111.145 7.48092 114.122 3.35878 122.595 2.90076H124.656C127.497 2.74294 130.302 2.98393 133.095 3.22395C134.355 3.33221 135.613 3.44027 136.87 3.51145C137.074 3.52419 137.297 3.55395 137.528 3.58475C138.68 3.73845 140.025 3.91801 140.153 2.1374C140.21 0.576435 139.13 0.635538 138.138 0.689797C137.82 0.707181 137.511 0.724067 137.252 0.687023C135.746 0.486268 134.207 0.351509 132.679 0.21766C131.883 0.147927 131.09 0.0784416 130.305 0ZM103.511 44.9619C108.855 41.8322 111.985 37.1757 112.519 30.7635C112.424 30.3829 112.371 29.9645 112.318 29.5377C112.157 28.2519 111.986 26.8901 110.611 26.2596C108.918 25.5975 107.581 26.8498 106.461 27.8981C106.419 27.9375 106.377 27.9766 106.336 28.0154C102.214 31.6795 99.1602 36.0306 98.5495 41.6031C98.1678 45.1909 100.458 46.794 103.511 44.9619Z" fill="#212023"/>
<path d="M175.802 40.6103C174.886 41.2973 173.741 41.7553 172.748 42.2896C171.374 43.053 170.076 43.8164 169.16 44.198C167.634 44.8087 166.107 44.7324 165.344 44.1217C164.809 43.74 164.58 42.9767 164.657 41.9843C164.809 40.1522 166.336 38.5492 167.786 36.9461C168.397 36.3354 168.931 35.7248 169.466 35.0377C170 34.3507 172.672 30.7629 170.916 28.2438C170.305 27.3278 169.313 26.7935 168.168 26.6408C164.962 26.3354 160.687 29.7706 158.702 31.6026C159.084 29.8469 158.855 28.8545 158.473 28.1675C157.939 27.2515 156.947 26.7171 155.725 26.7171C153.435 26.7935 151.069 28.3965 148.092 31.0683L148.321 30.6866C150 27.9385 150.305 27.2515 150.458 26.8698C150.611 26.1828 150.382 25.4958 149.771 25.1904C148.931 24.8087 148.015 25.2667 147.786 26.0301C147.786 26.1064 147.71 26.1828 147.634 26.3355L145.878 29.3125C145.267 30.3813 144.504 31.5263 143.817 32.6713C143.206 33.5874 137.176 44.1217 137.099 44.2744L136.794 44.7324C136.412 45.3431 136.489 46.1064 137.023 46.5645C137.252 46.7935 137.557 46.8698 137.863 46.9461C138.397 47.0225 138.931 46.7171 139.237 46.2591L140.229 44.5797C141.221 43.1293 143.206 40.3049 143.817 39.6179C149.389 33.5874 153.206 29.6942 155.802 29.5416C155.878 29.5416 155.954 29.5416 155.954 29.5416C156.107 29.8469 156.336 33.3584 149.237 43.8927C149.084 44.1217 148.931 44.2744 148.779 44.5034C148.473 44.8851 148.397 45.4194 148.55 45.8774C149.084 46.9461 150.305 47.0225 150.916 46.2591C150.992 46.1828 151.145 46.1064 151.221 45.9538C151.298 45.8011 151.374 45.6484 151.527 45.5721C152.137 44.8087 157.328 36.9461 159.542 34.5797C161.374 32.6713 165.802 29.2362 167.863 29.4652C168.244 29.4652 168.397 29.6179 168.473 29.8469C168.779 30.3049 168.244 31.908 167.099 33.3584C166.641 33.8927 166.107 34.5034 165.573 35.1141C163.893 36.9461 161.908 39.0835 161.679 41.8316C161.527 43.8164 162.137 45.4194 163.512 46.4881C165.115 47.7095 167.557 47.8622 170.076 46.9461C171.221 46.4881 172.519 45.7248 174.046 44.8851C174.351 44.6561 174.733 44.5034 175.038 44.2744C175.496 43.969 175.42 44.0454 175.496 43.5874C175.878 42.595 175.649 41.6026 175.802 40.6103Z" fill="black"/>
<path d="M154.657 22.2132C154.733 22.2132 154.809 22.2132 154.886 22.2132L169.008 20.3048C169.771 20.2285 170.306 19.4651 170.229 18.7018C170.153 17.9384 169.389 17.4041 168.626 17.4804L154.504 19.3888C153.741 19.4651 153.206 20.2285 153.283 20.9918C153.359 21.7552 153.97 22.2132 154.657 22.2132Z" fill="black"/>
<path fill-rule="evenodd" clip-rule="evenodd" d="M179.906 34.3278C181.768 33.0651 184.137 32.3181 186.483 33.3311C186.496 33.3365 186.508 33.3422 186.521 33.348C189.68 34.8147 189.894 38.2299 189.07 40.517C189.066 40.5287 189.062 40.5403 189.057 40.5518C187.406 44.8111 183.351 48.0036 178.83 48.6122L178.824 48.6129C177.595 48.7738 176.434 48.6416 175.496 48.0425C174.522 47.421 174.032 46.4553 173.864 45.4665C173.548 43.6168 174.28 41.3865 175.336 39.4871C176.423 37.5311 178.035 35.596 179.906 34.3278ZM178.425 45.5857C181.836 45.1254 184.95 42.6778 186.203 39.4658C186.742 37.9517 186.351 36.648 185.253 36.1261C184.244 35.6996 183.013 35.9102 181.619 36.8552C180.224 37.8007 178.911 39.3389 178.004 40.9706C177.066 42.659 176.734 44.1311 176.874 44.9532C176.933 45.3002 177.051 45.4127 177.139 45.4688C177.261 45.547 177.615 45.6913 178.425 45.5857Z" fill="black"/>
<path fill-rule="evenodd" clip-rule="evenodd" d="M184.852 24.7659C185.508 25.2955 185.611 26.2567 185.081 26.9128C181.661 31.1506 178.841 35.9038 176.839 40.9449L176.829 40.9687C176.64 41.4233 176.516 41.7705 176.47 42.0589C176.429 42.321 176.477 42.384 176.479 42.3862L176.479 42.3863C176.932 43.0976 176.722 44.0413 176.011 44.494C175.299 44.9466 174.356 44.7369 173.903 44.0256C173.369 43.1863 173.343 42.293 173.454 41.5857C173.56 40.9068 173.814 40.2668 174.006 39.8062C176.126 34.4701 179.105 29.4564 182.705 24.9952C183.235 24.339 184.196 24.2364 184.852 24.7659Z" fill="black"/>
</svg>
