<svg width="539" height="77" viewBox="0 0 539 77" fill="none" xmlns="http://www.w3.org/2000/svg">
<path d="M449.5 57C448.3 57.9 446.9 58.6 445.6 59.4C443.8 60.5 442.2 61.5 441 62C439 62.8 437.1 62.9 436 62.1C435.3 61.6 434.9 60.6 435 59.3C435.1 56.9 437 54.7 438.9 52.6C439.6 51.8 440.4 50.9 441 50C441.7 49.1 445 44.2 442.6 41C441.7 39.8 440.5 39.1 438.9 39.1C434.7 38.9 429.2 43.6 426.7 46C427.1 43.7 426.7 42.4 426.2 41.5C425.5 40.3 424.1 39.6 422.6 39.7C419.6 39.9 416.5 42.1 412.8 45.8L413.1 45.3C415.4 41.2 415.7 40.5 415.8 40C416 39 415.3 38 414.2 37.9C413.3 37.8 412.4 38.4 412.1 39.3C412.1 39.4 412 39.5 411.9 39.7L409.8 43.6C409 45 408.1 46.6 407.3 48.1C406.6 49.4 399.1 63.4 399 63.6L398.6 64.3C398.1 65.2 398.5 66.3 399.4 66.8C399.7 66.9 399.9 67 400.2 67C400.9 67 401.6 66.7 401.9 66L403.1 63.7C404.3 61.7 406.8 57.9 407.6 57.1C414.6 49 419.5 43.6 422.8 43.4C422.9 43.4 423 43.4 423 43.4C423.2 43.8 424 47.1 415.2 61.4C415 61.7 414.8 61.9 414.6 62.2C414 63 414.2 64.2 415 64.8C415.8 65.4 416.9 65.2 417.5 64.5C417.6 64.4 417.8 64.2 417.9 64.1C418 63.9 418.1 63.7 418.2 63.5C419 62.4 419.7 61.3 420.5 60.3C422.9 56.8 425.1 53.1 427.9 50C430.2 47.4 435.9 42.7 438.6 42.9C439.1 42.9 439.3 43.1 439.4 43.3C439.8 43.9 439.2 46 437.8 47.9C437.3 48.6 436.6 49.4 435.9 50.2C433.7 52.7 431.3 55.5 431.1 59.2C431 61.8 431.9 63.9 433.7 65.2C435.9 66.7 439.1 66.8 442.3 65.5C443.8 64.9 445.5 63.8 447.4 62.6C447.8 62.3 448.3 62.1 448.7 61.8C449.3 61.3 449.2 61.5 449.2 60.9C449.6 59.6 449.3 58.2 449.5 57Z" fill="black"/>
<path d="M420.9 33.8C421 33.8 421.1 33.8 421.2 33.8L439.6 30.6C440.6 30.4 441.3 29.5 441.1 28.5C440.9 27.5 440 26.8 439 27L420.6 30.2C419.6 30.4 418.9 31.3 419.1 32.3C419.1 33.2 420 33.9 420.9 33.8Z" fill="black"/>
<path d="M282.3 42.1999C283.6 39.4999 286.8 37.2999 289.8 37.4999C292.5 37.5999 293 40.9999 292.8 43.0999C292.4 48.1999 290.1 52.9999 287.8 57.6999C286.7 59.7999 285.6 61.9999 283.8 63.5999C282 65.1999 279.5 66.1999 277.2 65.3999C274.9 64.5999 273.4 61.7999 274.6 59.6999C275 60.4999 275.3 61.2999 275.7 62.0999" stroke="black" stroke-width="3.5" stroke-linecap="round" stroke-linejoin="round"/>
<path d="M287 60.3001C290.5 56.1001 303 42.3001 303 42.3001C303 42.3001 298.5 55.7001 296 62.2001C296.5 60.3001 308.7 48.7001 315.6 41.2001C317.4 39.3001 322.2 39.7001 322.1 43.5001" stroke="black" stroke-width="3.5" stroke-linecap="round" stroke-linejoin="round"/>
<path d="M315 42C313.5 43.5 307.4 56.2 307.9 60.9C308 61.9 308.2 62.9 308.7 63.8C309.8 65.5 312.1 66 314 65.6C318.8 64.5 322.5 60.3 326.1 57.2" stroke="black" stroke-width="3.5" stroke-linecap="round" stroke-linejoin="round"/>
<path d="M510.6 45.8998C511.8 43.4998 514.6 41.4998 517.4 41.6998C519.8 41.7998 520.2 44.7998 520.1 46.6998C519.7 51.2998 513.6 61.5998 512.1 63.0998C510.5 64.4998 508.2 65.3998 506.2 64.6998C504.2 63.9998 502.8 61.3998 503.8 59.5998" stroke="black" stroke-width="3.5" stroke-linecap="round" stroke-linejoin="round"/>
<path d="M532.3 45.3999C532.1 42.9999 529.6 41.6999 527.5 42.8999C522.1 45.9999 517.3 54.2999 517.9 60.5999C518 61.4999 518.2 62.4999 518.7 63.2999C519.5 64.4999 520.8 65.1999 522.3 65.3999C523.6 65.4999 525.6 65.3999 526.7 64.6999C527.7 64.0999 528.6 63.3999 529.5 62.6999" stroke="black" stroke-width="3.5" stroke-linecap="round" stroke-linejoin="round"/>
<path d="M334.8 39.8999C331.3 44.6999 327.1 53.2999 326.2 58.9999C326 60.2999 325.9 61.7999 326.9 62.6999C328.3 64.1999 330.9 63.5999 332.7 62.5999C335.5 60.9999 337.6 58.5999 339.6 56.2999C343 52.2999 346.9 44.1999 350 39.9999C347.5 43.4999 346.2 47.6999 344 51.4999C342.8 53.5999 339.8 62.5999 343.8 63.7999C344.8 64.0999 345.8 63.7999 346.8 63.4999C349.8 62.2999 352.6 60.3999 355.5 58.9999" stroke="black" stroke-width="4" stroke-linecap="round" stroke-linejoin="round"/>
<path d="M358 56.8998C360.8 55.0998 363.1 52.8998 365.3 50.4998C369.4 46.0998 373.3 41.2998 376.8 36.4998C380.4 31.4998 385.9 24.7998 385.4 18.2998C385.3 16.3998 384.1 15.2998 382.2 15.3998C375.7 15.6998 370 23.2998 366.9 28.3998C362.6 35.4998 358.9 43.0998 357.1 51.1998C356.5 53.8998 356 56.7998 356.7 59.5998C358.2 65.5998 364.9 66.1998 369.4 63.2998C374.9 59.6998 378.8 50.1998 375.5 44.0998C375.1 43.3998 374.4 42.8998 373.6 42.9998" stroke="black" stroke-width="4" stroke-linecap="round" stroke-linejoin="round"/>
<path d="M478.9 64.6001C483.6 64.0001 487.9 60.6001 489.6 56.1001C490.4 53.8001 490.1 50.9001 487.5 49.8001C479.6 46.4001 469.2 65.9001 478.9 64.6001Z" stroke="black" stroke-width="3.5" stroke-linecap="round" stroke-linejoin="round"/>
<path d="M474.9 61.9999C474.3 60.9999 474.7 59.6999 475.1 58.5999C477.6 52.3999 481 46.5999 485.3 41.3999" stroke="black" stroke-width="3.5" stroke-linecap="round" stroke-linejoin="round"/>
<path d="M504.2 41.7002C499.9 47.2002 495.3 56.0002 493.9 59.5002C493 61.8002 493.5 65.1002 496.5 64.9002C499.3 64.7002 501.9 62.2002 503.7 60.2002" stroke="black" stroke-width="3.5" stroke-linecap="round" stroke-linejoin="round"/>
<path d="M468.8 60.7998C466.7 61.9998 465.6 62.0998 465.2 61.7998C464.4 61.0998 464.4 57.8998 465.6 54.5998C466.1 53.1998 467.6 50.0998 467.6 50.0998C468.5 48.2998 469.4 46.5998 470.4 44.6998C471 43.6998 471.5 42.6998 472 41.6998C472.4 40.8998 472.1 39.8998 471.3 39.3998C470.5 38.9998 469.5 39.2998 469 40.0998C468.5 41.0998 467.9 42.0998 467.4 43.0998C466.5 44.7998 465.5 46.4998 464.6 48.2998C462 50.4998 459.8 51.1998 457.4 50.4998C456.7 50.2998 455.7 49.5998 455.2 48.8998L458.5 41.1998C458.9 40.2998 458.5 39.3998 457.6 38.9998C456.7 38.5998 455.8 38.9998 455.4 39.8998L447.5 58.3998C445.8 62.3998 445.1 64.3998 445 64.4998C445 64.4998 445 64.4998 445.1 64.4998C445.1 65.0998 445.5 65.6998 446.1 65.9998C446.3 66.0998 446.6 66.0998 446.8 66.0998C447.4 66.0998 448 65.6998 448.3 65.0998L453.7 52.2998C454.5 52.9998 455.5 53.4998 456.4 53.7998C457.4 54.0998 458.4 54.1998 459.4 54.1998C460.3 54.1998 461.3 53.9998 462.2 53.6998C461.1 56.6998 460 62.0998 462.8 64.4998C463.6 65.1998 464.6 65.4998 465.7 65.4998C467 65.3998 468.5 64.8998 470.3 63.8998C471 63.4998 471.7 62.9998 472.5 62.4998C472.7 62.1998 476.7 55.7998 476.7 54.6998C473.9 57.2998 471.2 59.3998 468.8 60.7998Z" fill="black"/>
<path d="M399.8 38.6001C395.3 33.8001 387.1 43.0001 385.1 46.4001C382.7 50.4001 378.9 58.7001 382.6 62.9001C389.4 70.5001 408 47.3001 399.8 38.6001Z" stroke="black" stroke-width="4" stroke-linecap="round" stroke-linejoin="round"/>
<path d="M486.9 60.9C491.2 57.4 496 53.2 499.6 48.5" stroke="black" stroke-width="3.5" stroke-linecap="round" stroke-linejoin="round"/>
<path d="M4.70005 63.2004C4.40005 63.1004 4.10005 63.1004 3.80005 63.1004C3.80005 61.3004 3.80005 59.4004 3.80005 57.6004C7.80005 55.6004 8.40005 56.2004 8.10005 62.2004C7.60005 64.5004 6.70005 65.5004 4.70005 63.2004Z" fill="#32355E"/>
<path d="M171.4 61.6003C171.8 60.2003 172.3 58.8003 172.9 57.4003C173.7 55.6003 174.6 53.8003 175.6 52.1003H175.5C173.9 51.5003 173 52.4003 172.3 53.9003C170.8 57.2003 167.6 58.5003 164.6 60.0003C163.1 60.8003 161.1 61.6003 159.5 60.0003C158 58.5003 159.1 56.8003 159.5 55.3003C160 53.6003 160.7 51.8003 161.6 50.3003C163.6 46.9003 165.9 43.7003 168 40.3003C168.9 38.9003 170.9 37.2003 168.6 35.7003C166.5 34.3003 165.4 36.6003 164.4 38.0003C162.2 41.1003 160.2 44.3003 158.2 47.6003C156 51.2003 153.3 54.2003 149.9 56.5003C148.2 57.7003 145.9 59.7003 144.2 58.4003C142.5 57.1003 144.1 54.5003 144.8 52.5003C146.6 47.6003 149.1 43.1003 152.1 38.9003C153 37.7003 153.5 36.5003 152.1 35.3003C151 34.4003 150 34.8003 149.3 35.7003C144.5 42.4003 140 49.4003 139.4 57.9003C139.1 62.3003 141.4 63.9003 145.7 62.9003C148.9 62.2003 151.5 60.3003 154.3 58.7003C156.6 64.9003 159.3 66.2003 165.5 64.0003C166.9 63.5003 168.3 62.7003 169.6 62.1003C170.2 61.9003 170.7 61.3003 171.4 61.6003Z" fill="#201F22"/>
<path d="M4.69995 63.2003C6.19995 64.1003 7.29995 63.5003 8.09995 62.1003C8.89995 64.9003 9.79995 67.5003 13.6 67.7003C17.7 67.9003 19.1 65.2003 20.2 62.1003C22.6 55.3003 23.7 48.1003 26.7 41.5003C32.2 29.6003 40.3999 20.5003 53.2999 16.3003C54.2999 17.3003 54.7 18.4003 54 19.8003C35.2 27.0003 28.9 43.2003 24.9 60.8003C23.7 65.8003 21.6 69.9003 16.5 71.8003C14.7 71.2003 12.7 72.1003 10.9 71.2003C7.19995 70.0003 4.99995 67.3003 4.69995 63.2003Z" fill="#222023"/>
<path d="M54.1002 19.9002C53.4002 18.8002 53.2002 17.7002 53.4002 16.4002C56.4002 14.7002 59.4002 15.2002 62.4002 16.3002C61.4002 18.2002 59.5002 18.7002 57.7002 19.3002C56.5002 19.5002 55.3002 19.7002 54.1002 19.9002Z" fill="#31345E"/>
<path d="M11 71.4002C12.9 71.6002 14.8 70.8002 16.6 72.0002C14.7 72.1002 12.7 73.1002 11 71.4002Z" fill="#030404"/>
<path fill-rule="evenodd" clip-rule="evenodd" d="M62.8978 19.1601C63.4915 18.2065 64.1196 17.1975 62.4 16.3003C61.958 16.5083 61.4889 16.6825 61.0209 16.8563C59.6891 17.351 58.366 17.8423 57.7 19.1003C57.308 22.0409 56.2754 24.8106 55.244 27.577C54.6971 29.0441 54.1505 30.5102 53.7 32.0003C52.95 34.4754 52.1312 36.9255 51.314 39.371C48.8624 46.7068 46.425 54.0004 45.9 61.8003C45.4 69.9003 49.4 72.2003 56.7 68.4003C61.4 66.0003 65.2 63.2003 69.3 59.8003C69.5067 60.2824 69.4405 60.8712 69.3753 61.4524C69.251 62.559 69.1298 63.638 70.9 63.9003C72.6106 64.1447 73.1268 62.9957 73.6378 61.8586C73.7541 61.5997 73.8702 61.3414 74 61.1003C74.9 59.3503 75.775 57.5754 76.65 55.8004C77.525 54.0254 78.4 52.2503 79.3 50.5003C81.7 51.7003 83.9 52.8003 86.4 52.7003C88.1 52.7003 88.8 52.9003 88.4 55.0003C87.7 58.9003 88.4 62.5003 92.1 64.6003C95.7 66.7003 99.4 65.6003 102.4 63.4003C109 58.6003 113.4 52.0003 114.5 43.8003C115.1 39.6003 114.4 35.3003 110.3 33.0003C106.378 30.7592 103.241 33.1396 100.237 35.4188C100.024 35.5804 99.8119 35.7414 99.6 35.9003C98.5 36.7003 97.5 37.7003 96.7 38.8003C94.9 41.3003 93.2 43.8003 91.5 46.3003C89.3 49.5003 86.3 49.3003 83.4 48.0003C80.7039 46.802 81.6535 45.3233 82.5944 43.8582C82.9098 43.367 83.2243 42.8774 83.4 42.4003C83.8487 41.3535 84.3532 40.3626 84.8718 39.344C85.0468 39.0003 85.2234 38.6535 85.4 38.3003C85.4685 38.1633 85.5407 38.0233 85.614 37.8812C86.3963 36.3643 87.3031 34.6061 85.2 33.6003C83.1177 32.5095 82.3136 34.7618 81.8127 36.1648L81.8 36.2003C77.9 47.1003 55.5 69.4003 51.2 65.5003C49.1452 63.6099 49.9277 60.8413 50.6603 58.2494C50.819 57.6878 50.9754 57.1346 51.1 56.6003C52.8442 48.5254 55.5065 40.7426 58.1702 32.9554C59.63 28.6879 61.0902 24.4192 62.4 20.1003C62.501 19.7975 62.6974 19.4819 62.8978 19.1601ZM105 36.9004C97.7001 41.6004 93.6001 48.4004 92.1001 56.2004C92.3001 60.2004 93.4001 62.3004 97.1001 61.4004C104.2 60.0004 112.2 46.2004 110 39.2004C109.1 36.3004 107.5 35.3004 105 36.9004Z" fill="#211F22"/>
<path fill-rule="evenodd" clip-rule="evenodd" d="M159.5 1.7002H147.5C134.8 3.6002 130.2 10.1002 133.6 21.9002C134.295 24.6023 135.168 27.2448 136.129 30.1498C136.412 31.0076 136.704 31.8883 137 32.8002C132.9 31.3002 129.5 32.2002 126.6 34.6002C120.4 39.6002 116.1 46.0002 114.3 53.8002C113.4 57.7002 113.5 61.6002 117.2 64.1002C121 66.6002 124.8 65.4002 128.3 63.1002C139.3 55.8002 144.2 41.2002 139.9 28.6002C139.718 28.1221 139.531 27.644 139.343 27.1647C138.706 25.5388 138.063 23.8993 137.6 22.2002C134.4 11.5002 138.3 6.1002 149.4 5.5002H152.1C155.822 5.29344 159.496 5.60914 163.155 5.92357C164.805 6.06539 166.453 6.20695 168.1 6.3002C168.367 6.31689 168.659 6.35587 168.962 6.39622C170.471 6.59757 172.233 6.83279 172.4 4.5002C172.476 2.45533 171.06 2.53275 169.761 2.60383C169.344 2.6266 168.94 2.64872 168.6 2.6002C166.628 2.33721 164.612 2.16067 162.61 1.98533C161.567 1.89398 160.528 1.80295 159.5 1.7002ZM124.4 60.6003C131.4 56.5003 135.5 50.4003 136.2 42.0003C136.075 41.5019 136.007 40.9537 135.937 40.3945C135.725 38.7102 135.502 36.9262 133.7 36.1003C131.483 35.2329 129.731 36.8734 128.264 38.2467C128.209 38.2983 128.154 38.3496 128.1 38.4003C122.7 43.2003 118.7 48.9003 117.9 56.2003C117.4 60.9003 120.4 63.0003 124.4 60.6003Z" fill="#212023"/>
<path d="M219.1 54.8997C217.9 55.7997 216.4 56.3997 215.1 57.0997C213.3 58.0997 211.6 59.0997 210.4 59.5997C208.4 60.3997 206.4 60.2997 205.4 59.4997C204.7 58.9997 204.4 57.9997 204.5 56.6997C204.7 54.2997 206.7 52.1997 208.6 50.0997C209.4 49.2997 210.1 48.4997 210.8 47.5997C211.5 46.6997 215 41.9997 212.7 38.6997C211.9 37.4997 210.6 36.7997 209.1 36.5997C204.9 36.1997 199.3 40.6997 196.7 43.0997C197.2 40.7997 196.9 39.4997 196.4 38.5997C195.7 37.3997 194.4 36.6997 192.8 36.6997C189.8 36.7997 186.7 38.8997 182.8 42.3997L183.1 41.8997C185.3 38.2997 185.7 37.3997 185.9 36.8997C186.1 35.9997 185.8 35.0997 185 34.6997C183.9 34.1997 182.7 34.7997 182.4 35.7997C182.4 35.8997 182.3 35.9997 182.2 36.1997L179.9 40.0997C179.1 41.4997 178.1 42.9997 177.2 44.4997C176.4 45.6997 168.5 59.4997 168.4 59.6997L168 60.2997C167.5 61.0997 167.6 62.0997 168.3 62.6997C168.6 62.9997 169 63.0997 169.4 63.1997C170.1 63.2997 170.8 62.8997 171.2 62.2997L172.5 60.0997C173.8 58.1997 176.4 54.4997 177.2 53.5997C184.5 45.6997 189.5 40.5997 192.9 40.3997C193 40.3997 193.1 40.3997 193.1 40.3997C193.3 40.7997 193.6 45.3997 184.3 59.1997C184.1 59.4997 183.9 59.6997 183.7 59.9997C183.3 60.4997 183.2 61.1997 183.4 61.7997C184.1 63.1997 185.7 63.2997 186.5 62.2997C186.6 62.1997 186.8 62.0997 186.9 61.8997C187 61.6997 187.1 61.4997 187.3 61.3997C188.1 60.3997 194.9 50.0997 197.8 46.9997C200.2 44.4997 206 39.9997 208.7 40.2997C209.2 40.2997 209.4 40.4997 209.5 40.7997C209.9 41.3997 209.2 43.4997 207.7 45.3997C207.1 46.0997 206.4 46.8997 205.7 47.6997C203.5 50.0997 200.9 52.8997 200.6 56.4997C200.4 59.0997 201.2 61.1997 203 62.5997C205.1 64.1997 208.3 64.3997 211.6 63.1997C213.1 62.5997 214.8 61.5997 216.8 60.4997C217.2 60.1997 217.7 59.9997 218.1 59.6997C218.7 59.2997 218.6 59.3997 218.7 58.7997C219.2 57.4997 218.9 56.1997 219.1 54.8997Z" fill="black"/>
<path d="M191.4 30.7998C191.5 30.7998 191.6 30.7998 191.7 30.7998L210.2 28.2998C211.2 28.1998 211.9 27.1998 211.8 26.1998C211.7 25.1998 210.7 24.4998 209.7 24.5998L191.2 27.0998C190.2 27.1998 189.5 28.1998 189.6 29.1998C189.7 30.1998 190.5 30.7998 191.4 30.7998Z" fill="black"/>
<path d="M222.8 63.4C228 62.7 232.7 59 234.6 54.1C235.5 51.6 235.1 48.5 232.3 47.2C223.5 43.4 212.1 64.8 222.8 63.4Z" stroke="black" stroke-width="4" stroke-linecap="round" stroke-linejoin="round"/>
<path d="M218.3 58.3002C217.6 57.2002 218.1 55.8002 218.6 54.6002C221.3 47.8002 225.1 41.4002 229.7 35.7002" stroke="black" stroke-width="4" stroke-linecap="round" stroke-linejoin="round"/>
</svg>
