<svg width="34" height="34" viewBox="0 0 34 34" fill="none" xmlns="http://www.w3.org/2000/svg">
<path d="M17.0001 33.3C26.0576 33.3 33.4001 25.9575 33.4001 16.9C33.4001 7.84253 26.0576 0.5 17.0001 0.5C7.94262 0.5 0.600098 7.84253 0.600098 16.9C0.600098 25.9575 7.94262 33.3 17.0001 33.3Z" stroke="#C9C9C9" stroke-miterlimit="10"/>
<path d="M12.8003 18.9002C12.8003 17.9002 12.8003 17.0002 12.8003 16.0002C12.8003 15.7002 12.9003 15.6002 13.2003 15.5002C13.5003 15.4002 13.7003 15.3002 13.9003 15.0002C14.6003 14.3002 15.1003 13.4002 15.4003 12.5002C15.6003 11.8002 16.1003 11.2002 16.7003 10.8002C17.3003 10.4002 17.5003 9.80019 17.7003 9.10019C17.9003 8.40019 18.0003 7.70019 18.0003 7.10019C18.0003 6.80019 18.2003 6.7002 18.5003 6.7002C18.9003 6.7002 19.2003 6.80019 19.5003 7.10019C20.1003 7.60019 20.4003 8.30019 20.3003 9.10019C20.3003 9.90019 20.0003 10.6002 19.6003 11.3002C19.4003 11.7002 19.2003 12.1002 19.1003 12.5002C19.0003 12.5002 19.0003 12.7002 19.0003 12.8002C19.0003 13.0002 19.1003 13.1002 19.3003 13.2002C19.5003 13.2002 19.7003 13.2002 19.9003 13.2002C20.6003 13.2002 21.2003 13.2002 21.9003 13.2002C22.3003 13.2002 22.8003 13.3002 23.2003 13.3002C23.7003 13.4002 24.1003 13.7002 24.4003 14.2002C24.6003 14.5002 24.7003 14.8002 24.5003 15.2002C24.4003 15.3002 24.3003 15.5002 24.2003 15.6002C24.0003 15.8002 23.9003 16.0002 24.1003 16.3002C24.2003 16.5002 24.3003 16.6002 24.4003 16.7002C24.6003 17.1002 24.6003 17.4002 24.3003 17.7002C24.1003 17.8002 24.0003 17.9002 24.0003 18.0002C23.9003 18.1002 23.9003 18.3002 23.9003 18.5002C24.0003 18.7002 24.1003 18.9002 24.2003 19.1002C24.3003 19.4002 24.3003 19.7002 24.0003 20.0002C23.9003 20.1002 23.7003 20.3002 23.5003 20.4002C23.3003 20.6002 23.2003 20.9002 23.2003 21.2002C23.2003 21.4002 23.2003 21.6002 23.2003 21.8002C23.2003 22.1002 22.9003 22.2002 22.7003 22.4002C22.3003 22.7002 21.8003 22.9002 21.3003 22.9002C20.5003 23.0002 19.8003 23.0002 19.0003 23.0002C17.8003 23.0002 16.7003 22.9002 15.5003 22.7002C14.8003 22.6002 14.0003 22.5002 13.3003 22.3002C12.9003 22.2002 12.8003 22.1002 12.8003 21.7002C12.8003 20.8002 12.8003 19.8002 12.8003 18.9002Z" fill="#8B8B8B"/>
<path d="M8.7002 18.9004C8.7002 18.0004 8.7002 17.2004 8.7002 16.3004C8.7002 15.7004 9.0002 15.4004 9.6002 15.4004C10.2002 15.4004 10.9002 15.4004 11.5002 15.4004C11.8002 15.4004 12.2002 15.8004 12.2002 16.1004C12.2002 16.5004 12.2002 16.9004 12.2002 17.3004C12.2002 17.4004 12.2002 17.4004 12.2002 17.5004C12.2002 18.9004 12.2002 20.3004 12.2002 21.7004C12.2002 22.2004 11.9002 22.5004 11.4002 22.5004C10.8002 22.5004 10.1002 22.5004 9.5002 22.5004C9.0002 22.5004 8.7002 22.2004 8.7002 21.7004C8.7002 20.7004 8.7002 19.8004 8.7002 18.9004Z" fill="#8B8B8B"/>
</svg>
