<svg width="34" height="34" viewBox="0 0 34 34" fill="none" xmlns="http://www.w3.org/2000/svg">
<path d="M17.0001 33.3C26.0576 33.3 33.4001 25.9575 33.4001 16.9C33.4001 7.84253 26.0576 0.5 17.0001 0.5C7.94262 0.5 0.600098 7.84253 0.600098 16.9C0.600098 25.9575 7.94262 33.3 17.0001 33.3Z" stroke="#CAC8C8" stroke-miterlimit="10"/>
<path d="M12.8003 14.8002C12.8003 15.8002 12.8003 16.7002 12.8003 17.7002C12.8003 18.0002 12.9003 18.1002 13.2003 18.2002C13.5003 18.3002 13.7003 18.4002 13.9003 18.7002C14.6003 19.4002 15.1003 20.3002 15.4003 21.2002C15.6003 21.9002 16.1003 22.5002 16.7003 22.9002C17.3003 23.3002 17.5003 23.9002 17.7003 24.6002C17.9003 25.3002 18.0003 26.0002 18.0003 26.6002C18.0003 26.9002 18.2003 27.0002 18.5003 27.0002C18.9003 27.0002 19.2003 26.9002 19.5003 26.6002C20.1003 26.1002 20.4003 25.4002 20.3003 24.6002C20.3003 23.8002 20.0003 23.1002 19.6003 22.4002C19.4003 22.0002 19.2003 21.6002 19.1003 21.2002C19.0003 21.2002 19.0003 21.0002 19.0003 20.9002C19.0003 20.7002 19.1003 20.6002 19.3003 20.5002C19.5003 20.5002 19.7003 20.5002 19.9003 20.5002C20.6003 20.5002 21.2003 20.5002 21.9003 20.5002C22.3003 20.5002 22.8003 20.4002 23.2003 20.4002C23.7003 20.3002 24.1003 20.0002 24.4003 19.5002C24.6003 19.2002 24.7003 18.9002 24.5003 18.5002C24.4003 18.4002 24.3003 18.2002 24.2003 18.1002C24.0003 17.9002 23.9003 17.7002 24.1003 17.4002C24.2003 17.2002 24.3003 17.1002 24.4003 17.0002C24.6003 16.6002 24.6003 16.3002 24.3003 16.0002C24.2003 15.9002 24.1003 15.8002 24.0003 15.7002C23.9003 15.6002 23.9003 15.4002 23.9003 15.2002C24.0003 15.0002 24.1003 14.8002 24.2003 14.6002C24.3003 14.3002 24.3003 14.0002 24.0003 13.7002C23.9003 13.6002 23.7003 13.4002 23.5003 13.3002C23.3003 13.1002 23.2003 12.8002 23.2003 12.5002C23.2003 12.3002 23.2003 12.1002 23.2003 11.9002C23.2003 11.6002 22.9003 11.5002 22.7003 11.3002C22.3003 11.0002 21.8003 10.8002 21.3003 10.8002C20.6003 10.7002 19.8003 10.7002 19.0003 10.7002C17.8003 10.7002 16.7003 10.8002 15.5003 11.0002C14.8003 11.1002 14.0003 11.2002 13.3003 11.4002C12.9003 11.5002 12.8003 11.6002 12.8003 12.0002C12.8003 12.9002 12.8003 13.9002 12.8003 14.8002Z" fill="#8B8B8B"/>
<path d="M8.7002 14.8002C8.7002 15.7002 8.7002 16.5002 8.7002 17.4002C8.7002 18.0002 9.0002 18.3002 9.6002 18.3002C10.2002 18.3002 10.9002 18.3002 11.5002 18.3002C11.8002 18.3002 12.2002 17.9002 12.2002 17.6002C12.2002 17.2002 12.2002 16.8002 12.2002 16.4002C12.2002 16.3002 12.2002 16.3002 12.2002 16.2002C12.2002 14.8002 12.2002 13.4002 12.2002 12.0002C12.2002 11.5002 11.9002 11.2002 11.4002 11.2002C10.8002 11.2002 10.1002 11.2002 9.5002 11.2002C9.0002 11.2002 8.7002 11.5002 8.7002 12.0002C8.7002 13.0002 8.7002 13.9002 8.7002 14.8002Z" fill="#8B8B8B"/>
</svg>
