<svg width="406" height="74" viewBox="0 0 406 74" fill="none" xmlns="http://www.w3.org/2000/svg">
<g clip-path="url(#clip0)">
<path d="M43.2002 46.1001C45.5002 43.9001 53.1002 37.0001 47.5002 34.3001C44.2002 32.7001 40.3002 35.9001 38.0002 38.1001C36.1002 39.8001 34.4002 42.2001 33.6002 44.6001C32.8002 46.8001 32.7002 50.7002 35.9002 50.5002C38.8002 50.1002 41.2002 48.0001 43.2002 46.1001Z" stroke="#5C5552" stroke-width="3" stroke-miterlimit="10"/>
<path d="M53.0004 34.5C52.2004 35.7 46.0004 44.2 46.6004 47C47.1004 49.7 48.6004 50.3 51.1004 50.1C54.0004 49.9 56.9004 48.2 58.9004 46.2" stroke="#5C5552" stroke-width="3" stroke-miterlimit="10"/>
<path d="M148.4 46.1001C150.7 43.9001 158.3 37.0001 152.7 34.3001C149.4 32.7001 145.5 35.9001 143.2 38.1001C141.3 39.8001 139.6 42.2001 138.8 44.6001C138 46.8001 137.9 50.7002 141.1 50.5002C144 50.1002 146.4 48.0001 148.4 46.1001Z" stroke="#5C5552" stroke-width="3" stroke-miterlimit="10"/>
<path d="M158.2 34.5C157.4 35.7 151.2 44.2 151.8 47C152.3 49.7 153.8 50.3 156.3 50.1C159.2 49.9 162.1 48.2 164.1 46.2" stroke="#5C5552" stroke-width="3" stroke-miterlimit="10"/>
<path d="M389.2 44.5001C391.5 42.3001 399.1 35.4001 393.5 32.7001C390.2 31.1001 386.3 34.3001 384 36.5001C382.1 38.2001 380.4 40.6001 379.6 43.0001C378.8 45.2001 378.7 49.1001 381.9 48.9001C384.8 48.5001 387.2 46.4001 389.2 44.5001Z" stroke="#5C5552" stroke-width="3" stroke-miterlimit="10"/>
<path d="M399 32.8999C398.2 34.0999 392 42.5999 392.6 45.3999C393.1 48.0999 394.6 48.6999 397.1 48.4999C400 48.2999 402.9 46.5999 404.9 44.5999" stroke="#5C5552" stroke-width="3" stroke-miterlimit="10"/>
<path d="M170.6 33.6001L162.3 50.5001" stroke="#5C5552" stroke-width="3" stroke-miterlimit="10"/>
<path d="M167.4 41.1C167.9 42 169 42.8 169.9 43.1C172.7 44 175.2 42.8 177.4 41" stroke="#5C5552" stroke-width="3" stroke-miterlimit="10"/>
<path d="M186.5 45.3003C184.4 47.0003 182.2 48.5003 180.1 49.6003C174 52.8003 173.9 47.8003 175.6 44.0003C177.1 40.6003 179.2 37.5003 181.2 34.3003" stroke="#5C5552" stroke-width="3" stroke-miterlimit="10"/>
<path d="M209.5 45.7C211 45.5 212.5 45 213.6 44.5C217.3 43 221.1 39.8 222.4 35.9C222.7 35 223 33.6 221.9 33.1C220.4 32.4 217.9 33.9 216.8 34.7C212.6 37.6 207.1 45.2 211.5 50C213.7 52.5 217.4 51.2 219.8 49.8C223.5 47.8 226.9 44.9 229.7 41.7" stroke="#5C5552" stroke-width="3" stroke-miterlimit="10"/>
<path d="M106.3 34.7002C103.1 39.1002 102.9 39.3002 101.6 41.6002C100 44.3002 98.0001 47.6002 100.3 50.2002C105.6 49.9002 109.6 45.2002 112.2 40.9002C113.5 38.6002 115.2 36.9002 116.7 35.0002C116.1 35.8002 115.5 36.7002 114.9 37.4002C115.5 36.6002 116.1 35.8002 116.7 35.0002C113.8 39.2002 109.9 42.9002 109.2 48.2002C109.2 49.5002 109.9 50.8002 111.2 51.2002C116.2 51.5002 119.5 46.9002 123.4 44.5002" stroke="#5C5552" stroke-width="3" stroke-miterlimit="10"/>
<path d="M193.1 34.7002C189.6 39.7002 190.8 38.2002 188.6 41.6002C186.9 44.2002 185.3 47.6002 187.6 50.2002C192.9 49.9002 196.9 45.2002 199.5 40.9002C200.8 38.6002 202.5 36.9002 204 35.0002C203.4 35.8002 202.8 36.7002 202.2 37.4002C202.8 36.6002 203.4 35.8002 204 35.0002C201.1 39.2002 197.2 42.9002 196.5 48.2002C196.5 49.5002 197.2 50.8002 198.5 51.2002C203.5 51.5002 206.8 46.9002 210.7 44.5002" stroke="#5C5552" stroke-width="3" stroke-miterlimit="10"/>
<path d="M101.5 41.9002C99.6 43.5002 97.8 45.2002 95.9 46.8002C94.1 48.3002 91.5 50.4002 89 50.7002C87.9 50.9002 85.5 50.5002 85.3 49.2002C85.1 48.0002 85.8 46.1002 86.2 45.0002C86.8 43.5002 87.7 42.2002 88.6 40.8002C89.4 39.4002 91.5 37.0002 90.8 35.2002C89.3 31.3002 84 35.8002 82.3 37.2002C78.2 40.7002 75.5 45.4002 72.5 49.8002" stroke="#5C5552" stroke-width="3" stroke-miterlimit="10"/>
<path d="M81.7 33.5L73.5 48.5" stroke="#5C5552" stroke-width="3" stroke-miterlimit="10"/>
<path d="M27.3998 12.5C22.3998 23.9 18.2998 35.2 14.1998 45.8C12.6998 49.6 11.2998 54.8 6.49984 55.1C0.999842 55.5 -1.40016 47.9 2.89984 44.5" stroke="#5C5552" stroke-width="3" stroke-miterlimit="10"/>
<path d="M10.0001 28.2999C7.30009 25.1999 7.80009 18.4999 8.70009 14.7999C9.80009 10.4999 12.4001 6.79993 15.9001 4.29993C23.4001 -1.00007 37.8001 -0.800075 40.5001 11.9999C41.9001 18.8999 39.7001 25.9999 35.5001 31.2999C31.5001 36.2999 24.4001 36.8999 19.6001 32.2999" stroke="#5C5552" stroke-width="3" stroke-miterlimit="10"/>
<path d="M71.8001 36.7C73.1001 34.8 71.0001 33.4 69.2001 33.8C67.7001 34.1 66.1001 35.2 65.0001 36.1C62.9001 37.9 60.8001 40.5 59.8001 42.8C58.5001 45.8 58.7001 50.6 63.1001 50.6C67.4001 50.6 73.2001 46.1 76.5001 43.7" stroke="#5C5552" stroke-width="3" stroke-miterlimit="10"/>
<path d="M135.9 36.7C137.2 34.8 135.1 33.4 133.3 33.8C131.8 34.1 130.2 35.2 129.1 36.1C127 37.9 124.9 40.5 123.9 42.8C122.6 45.8 122.8 50.6 127.2 50.6C131.5 50.6 135 47.3 138.3 44.9" stroke="#5C5552" stroke-width="3" stroke-miterlimit="10"/>
<path d="M292.9 28.1001C290.4 35.2001 288.9 42.7001 286.7 49.9001C285.6 53.5001 277.3 69.5001 274.7 71.5001C270.8 74.6001 272.5 68.4001 273.5 65.3001C274.5 62.5001 276.2 60.0001 277.7 57.4001C279.9 53.6001 282.4 49.9001 284.9 46.2001C288 41.7001 290.4 35.9001 295.6 32.8001C301.7 29.1001 301.7 36.0001 300.5 39.4001C299.3 42.9001 295.9 47.2001 292.4 48.7001C288.9 50.2001 286.8 46.8001 286.9 43.6001" stroke="#5C5552" stroke-width="3" stroke-miterlimit="10"/>
<path d="M327.8 44.8001C329.3 44.6001 330.8 44.1001 331.9 43.6001C335.6 42.1001 339.4 38.9001 340.7 35.0001C341 34.1001 341.3 32.7001 340.2 32.2001C338.7 31.5001 336.2 33.0001 335.1 33.8001C330.9 36.7001 325.4 44.3001 329.8 49.1001C332 51.6001 335.7 50.3001 338.1 48.9001C340.3 47.7001 343.6 44.9001 345.5 43.2001" stroke="#5C5552" stroke-width="3" stroke-miterlimit="10"/>
<path d="M311.7 32.4004C308.5 36.8004 308.3 37.3004 307 39.6004C305.4 42.3004 303.4 45.6004 305.7 48.2004C311 47.9004 315 43.2004 317.6 38.9004C318.9 36.6004 320.6 34.6004 322.1 32.7004C321.5 33.5004 320.9 34.4004 320.3 35.1004C320.9 34.3004 321.5 33.5004 322.1 32.7004C319.2 36.9004 315.3 40.9004 314.6 46.2004C314.6 47.5004 315.3 48.8004 316.6 49.2004C321.6 49.5004 324.9 44.9004 328.8 42.5004" stroke="#5C5552" stroke-width="3" stroke-miterlimit="10"/>
<path d="M288.4 40.8001C286.5 42.4001 284.7 44.1001 282.8 45.7001C281 47.2001 278.4 49.3001 275.9 49.6001C274.8 49.8001 272.4 49.4001 272.2 48.1001C272 46.9001 272.7 45.0001 273.1 43.9001C273.7 42.4001 274.6 41.1001 275.5 39.7001C276.3 38.3001 278.4 35.9001 277.7 34.1001C276.2 30.2001 270.9 34.7001 269.2 36.1001C265.1 39.6001 262.4 44.3001 259.4 48.7001" stroke="#5C5552" stroke-width="3" stroke-miterlimit="10"/>
<path d="M268.6 32.5L260.4 47.5" stroke="#5C5552" stroke-width="3" stroke-miterlimit="10"/>
<path d="M345.1 44.2004C344.1 46.3004 343.2 50.5004 347.4 48.9004C350.5 47.7004 352.6 43.9004 354.5 41.5004C356 39.6004 360.2 32.8004 361.6 30.9004C360.1 33.2004 356.7 40.4004 356.1 43.0004C355.9 43.9004 354.3 48.0004 355.7 48.5004C357.6 49.2004 363.7 42.9004 364.9 41.9004C367.4 39.8004 369.7 35.9004 372.2 31.4004C370 35.0004 365.1 43.7004 366 47.3004C366.3 48.5004 366.4 49.1004 367.9 48.8004C372 47.9004 373.7 46.3004 379.9 42.1004" stroke="#5C5552" stroke-width="3" stroke-miterlimit="10"/>
<path d="M335.3 25.2002C335.1 25.4002 335 25.6002 335 25.9002" stroke="#5C5552" stroke-width="3" stroke-linecap="round"/>
<path d="M342.9 25.9004C342.8 25.9004 342.7 25.9004 342.6 25.9004" stroke="#5C5552" stroke-width="3" stroke-linecap="round"/>
</g>
<defs>
<clipPath id="clip0">
<rect width="405.4" height="73.7" fill="white"/>
</clipPath>
</defs>
</svg>
