<svg width="232" height="107" viewBox="0 0 232 107" fill="none" xmlns="http://www.w3.org/2000/svg">
<path d="M139.8 77.2999C142.1 75.0999 149.7 68.1999 144.1 65.4999C140.8 63.8999 136.9 67.0999 134.6 69.2999C132.7 70.9999 131 73.3999 130.2 75.7999C129.4 77.9999 129.3 81.8999 132.5 81.6999C135.4 81.2999 137.8 79.1999 139.8 77.2999Z" stroke="#5C5552" stroke-width="3" stroke-miterlimit="10"/>
<path d="M149.6 65.6997C148.8 66.8997 142.6 75.3997 143.2 78.1997C143.7 80.8997 145.2 81.4997 147.7 81.2997C150.6 81.0997 153.5 79.3997 155.5 77.3997" stroke="#5C5552" stroke-width="3" stroke-miterlimit="10"/>
<path d="M43.5001 60.8999C41.0001 67.9999 39.5001 75.4999 37.3001 82.6999C36.2001 86.2999 27.9001 102.3 25.3001 104.3C21.4001 107.4 23.1001 101.2 24.1001 98.0999C25.1001 95.2999 26.8001 92.7999 28.3001 90.1999C30.5001 86.3999 33.0001 82.6999 35.5001 78.9999C38.6001 74.4999 41.0001 68.6999 46.2001 65.5999C52.3001 61.8999 52.3001 68.7999 51.1001 72.1999C49.9001 75.6999 46.5001 79.9999 43.0001 81.4999C39.5001 82.9999 37.4001 79.5999 37.5001 76.3999" stroke="#5C5552" stroke-width="3" stroke-miterlimit="10"/>
<path d="M78.3999 77.5999C79.8999 77.3999 81.3999 76.8999 82.4999 76.3999C86.1999 74.8999 89.9999 71.6999 91.2999 67.7999C91.5999 66.8999 91.8999 65.4999 90.7999 64.9999C89.2999 64.2999 86.7999 65.7999 85.6999 66.5999C81.4999 69.4999 75.9999 77.0999 80.3999 81.8999C82.5999 84.3999 86.2999 83.0999 88.6999 81.6999C90.8999 80.4999 94.1999 77.6999 96.0999 75.9999" stroke="#5C5552" stroke-width="3" stroke-miterlimit="10"/>
<path d="M62.3001 65.2002C59.1001 69.6002 58.9001 70.1002 57.6001 72.4002C56.0001 75.1002 54.0001 78.4002 56.3001 81.0002C61.6001 80.7002 65.6001 76.0002 68.2001 71.7002C69.5001 69.4002 71.2001 67.4002 72.7001 65.5002C72.1001 66.3002 71.5 67.2002 70.9 67.9002C71.5 67.1002 72.1001 66.3002 72.7001 65.5002C69.8001 69.7002 65.9001 73.7002 65.2001 79.0002C65.2001 80.3002 65.9001 81.6002 67.2001 82.0002C72.2001 82.3002 75.5 77.7002 79.4 75.3002" stroke="#5C5552" stroke-width="3" stroke-miterlimit="10"/>
<path d="M39 73.5999C37.1 75.1999 35.3 76.8999 33.4 78.4999C31.6 79.9999 29 82.0999 26.5 82.3999C25.4 82.5999 23 82.1999 22.8 80.8999C22.6 79.6999 23.3 77.7999 23.7 76.6999C24.3 75.1999 25.2 73.8999 26.1 72.4999C26.9 71.0999 29 68.6999 28.3 66.8999C26.8 62.9999 21.5 67.4999 19.8 68.8999C15.7 72.3999 13 77.0999 10 81.4999" stroke="#5C5552" stroke-width="3" stroke-miterlimit="10"/>
<path d="M19.2 65.2998L11 80.2998" stroke="#5C5552" stroke-width="3" stroke-miterlimit="10"/>
<path d="M95.6998 77.0002C94.6998 79.1002 93.7998 83.3002 97.9998 81.7002C101.1 80.5002 103.2 76.7002 105.1 74.3002C106.6 72.4002 110.8 65.6002 112.2 63.7002C110.7 66.0002 107.3 73.2002 106.7 75.8002C106.5 76.7002 104.9 80.8002 106.3 81.3002C108.2 82.0002 114.3 75.7002 115.5 74.7002C118 72.6002 120.3 68.7002 122.8 64.2002C120.6 67.8002 115.7 76.5002 116.6 80.1002C116.9 81.3002 117 81.9002 118.5 81.6002C122.6 80.7002 124.3 79.1002 130.5 74.9002" stroke="#5C5552" stroke-width="3" stroke-miterlimit="10"/>
<path d="M85.9001 58C85.7001 58.2 85.6001 58.4 85.6001 58.7" stroke="#5C5552" stroke-width="3" stroke-linecap="round"/>
<path d="M93.5002 58.7002C93.4002 58.7002 93.3002 58.7002 93.2002 58.7002" stroke="#5C5552" stroke-width="3" stroke-linecap="round"/>
<path d="M44.2002 47.1001C46.5002 44.9001 54.1002 38.0001 48.5002 35.3001C45.2002 33.7001 41.3002 36.9001 39.0002 39.1001C37.1002 40.8001 35.4002 43.2001 34.6002 45.6001C33.8002 47.8001 33.7002 51.7002 36.9002 51.5002C39.8002 51.1002 42.2002 49.0001 44.2002 47.1001Z" stroke="#5C5552" stroke-width="3" stroke-miterlimit="10"/>
<path d="M54.0004 35.5C53.2004 36.7 47.0004 45.2 47.6004 48C48.1004 50.7 49.6004 51.3 52.1004 51.1C55.0004 50.9 57.9004 49.2 59.9004 47.2" stroke="#5C5552" stroke-width="3" stroke-miterlimit="10"/>
<path d="M149.4 47.1001C151.7 44.9001 159.3 38.0001 153.7 35.3001C150.4 33.7001 146.5 36.9001 144.2 39.1001C142.3 40.8001 140.6 43.2001 139.8 45.6001C139 47.8001 138.9 51.7002 142.1 51.5002C145 51.1002 147.4 49.0001 149.4 47.1001Z" stroke="#5C5552" stroke-width="3" stroke-miterlimit="10"/>
<path d="M159.2 35.5C158.4 36.7 152.2 45.2 152.8 48C153.3 50.7 154.8 51.3 157.3 51.1C160.2 50.9 163.1 49.2 165.1 47.2" stroke="#5C5552" stroke-width="3" stroke-miterlimit="10"/>
<path d="M171.6 34.6001L163.3 51.5001" stroke="#5C5552" stroke-width="3" stroke-miterlimit="10"/>
<path d="M168.4 42.1C168.9 43 170 43.8 170.9 44.1C173.7 45 176.2 43.8 178.4 42" stroke="#5C5552" stroke-width="3" stroke-miterlimit="10"/>
<path d="M187.5 46.3003C185.4 48.0003 183.2 49.5003 181.1 50.6003C175 53.8003 174.9 48.8003 176.6 45.0003C178.1 41.6003 180.2 38.5003 182.2 35.3003" stroke="#5C5552" stroke-width="3" stroke-miterlimit="10"/>
<path d="M210.5 46.7C212 46.5 213.5 46 214.6 45.5C218.3 44 222.1 40.8 223.4 36.9C223.7 36 224 34.6 222.9 34.1C221.4 33.4 218.9 34.9 217.8 35.7C213.6 38.6 208.1 46.2 212.5 51C214.7 53.5 218.4 52.2 220.8 50.8C224.5 48.8 227.9 45.9 230.7 42.7" stroke="#5C5552" stroke-width="3" stroke-miterlimit="10"/>
<path d="M107.3 35.7002C104.1 40.1002 103.9 40.3002 102.6 42.6002C101 45.3002 99.0001 48.6002 101.3 51.2002C106.6 50.9002 110.6 46.2002 113.2 41.9002C114.5 39.6002 116.2 37.9002 117.7 36.0002C117.1 36.8002 116.5 37.7002 115.9 38.4002C116.5 37.6002 117.1 36.8002 117.7 36.0002C114.8 40.2002 110.9 43.9002 110.2 49.2002C110.2 50.5002 110.9 51.8002 112.2 52.2002C117.2 52.5002 120.5 47.9002 124.4 45.5002" stroke="#5C5552" stroke-width="3" stroke-miterlimit="10"/>
<path d="M194.1 35.7002C190.6 40.7002 191.8 39.2002 189.6 42.6002C187.9 45.2002 186.3 48.6002 188.6 51.2002C193.9 50.9002 197.9 46.2002 200.5 41.9002C201.8 39.6002 203.5 37.9002 205 36.0002C204.4 36.8002 203.8 37.7002 203.2 38.4002C203.8 37.6002 204.4 36.8002 205 36.0002C202.1 40.2002 198.2 43.9002 197.5 49.2002C197.5 50.5002 198.2 51.8002 199.5 52.2002C204.5 52.5002 207.8 47.9002 211.7 45.5002" stroke="#5C5552" stroke-width="3" stroke-miterlimit="10"/>
<path d="M102.5 42.9002C100.6 44.5002 98.8 46.2002 96.9 47.8002C95.1 49.3002 92.5 51.4002 90 51.7002C88.9 51.9002 86.5 51.5002 86.3 50.2002C86.1 49.0002 86.8 47.1002 87.2 46.0002C87.8 44.5002 88.7 43.2002 89.6 41.8002C90.4 40.4002 92.5 38.0002 91.8 36.2002C90.3 32.3002 85 36.8002 83.3 38.2002C79.2 41.7002 76.5 46.4002 73.5 50.8002" stroke="#5C5552" stroke-width="3" stroke-miterlimit="10"/>
<path d="M82.7 34.5L74.5 49.5" stroke="#5C5552" stroke-width="3" stroke-miterlimit="10"/>
<path d="M28.3998 13.5C23.3998 24.9 19.2998 36.2 15.1998 46.8C13.6998 50.6 12.2998 55.8 7.49984 56.1C1.99984 56.5 -0.400158 48.9 3.89984 45.5" stroke="#5C5552" stroke-width="3" stroke-miterlimit="10"/>
<path d="M11.0001 29.2999C8.30009 26.1999 8.80009 19.4999 9.70009 15.7999C10.8001 11.4999 13.4001 7.79993 16.9001 5.29993C24.4001 -7.41482e-05 38.8001 0.199925 41.5001 12.9999C42.9001 19.8999 40.7001 26.9999 36.5001 32.2999C32.5001 37.2999 25.4001 37.8999 20.6001 33.2999" stroke="#5C5552" stroke-width="3" stroke-miterlimit="10"/>
<path d="M72.8001 37.7C74.1001 35.8 72.0001 34.4 70.2001 34.8C68.7001 35.1 67.1001 36.2 66.0001 37.1C63.9001 38.9 61.8001 41.5 60.8001 43.8C59.5001 46.8 59.7001 51.6 64.1001 51.6C68.4001 51.6 74.2001 47.1 77.5001 44.7" stroke="#5C5552" stroke-width="3" stroke-miterlimit="10"/>
<path d="M136.9 37.7C138.2 35.8 136.1 34.4 134.3 34.8C132.8 35.1 131.2 36.2 130.1 37.1C128 38.9 125.9 41.5 124.9 43.8C123.6 46.8 123.8 51.6 128.2 51.6C132.5 51.6 136 48.3 139.3 45.9" stroke="#5C5552" stroke-width="3" stroke-miterlimit="10"/>
</svg>
