<svg width="366" height="77" viewBox="0 0 366 77" fill="none" xmlns="http://www.w3.org/2000/svg">
<path d="M364.3 46.5998C363.7 45.8998 362.6 45.7998 361.8 46.4998C360.8 47.3998 359.8 48.3998 358.9 49.2998C356 52.0998 353.3 54.7998 349.6 56.1998C349.1 56.3998 348.5 56.5998 348.2 56.4998C347.3 56.2998 347 54.5998 347.2 53.3998C347.6 49.6998 348.8 46.0998 350.3 42.4998C350.7 41.7998 351 40.9998 351.3 40.2998C351.4 40.0998 351.5 39.7998 351.6 39.5998C353.1 37.6998 354.2 35.4998 354.8 33.1998C355 32.2998 354.6 31.4998 353.7 31.0998C352.9 30.7998 351.9 31.0998 351.5 31.8998C351.4 32.0998 351.2 32.3998 351.1 32.5998C349 29.6998 344.6 29.3998 341.3 30.7998C337 32.6998 333.9 36.6998 333.5 41.1998C333.3 43.5998 334.2 44.8998 335 45.5998C336.7 46.9998 339 46.5998 339.7 46.4998C341.3 46.1998 342.9 45.6998 344.4 44.9998C341.8 48.3998 338.1 51.6998 333.1 55.1998C331.9 55.9998 330.7 56.7998 329.5 56.7998C328.2 56.7998 327.8 56.1998 327.7 55.9998C327.1 55.1998 327.1 53.6998 327.6 52.2998C327.8 51.6998 327.7 50.9998 327.3 50.4998C327.3 49.9998 327.1 49.4998 326.8 48.9998C326.5 48.4998 326 48.1998 325.5 48.1998C324.9 48.1998 324.4 48.3998 324 48.7998L323.7 49.1998C321.6 51.5998 315.1 58.9998 311.6 57.3998C311.3 56.8998 310.5 53.6998 322.8 35.3998C323.1 34.9998 323.3 34.5998 323.5 34.2998C324 33.4998 323.8 32.3998 323 31.8998C322.2 31.3998 321.1 31.5998 320.6 32.3998C320.4 32.6998 320.2 32.9998 319.9 33.3998C318.8 34.9998 317.8 36.4998 316.9 37.9998C316.6 38.0998 316.4 38.2998 316.2 38.5998C310.6 46.4998 303.6 53.2998 297 57.1998C296.2 57.6998 295.5 57.9998 294.9 57.9998C294.4 57.9998 294.1 57.7998 294 57.6998C293.9 57.5998 293.9 57.1998 294.4 56.0998C297.1 50.3998 301.1 41.7998 305.6 34.1998C306.1 33.3998 305.8 32.2998 305 31.7998C304.2 31.2998 303.1 31.5998 302.6 32.3998C299.3 38.0998 296.2 44.1998 293.7 49.2998C291.5 51.9998 288.7 54.2998 285.6 55.7998C285.3 55.8998 285 56.0998 284.6 56.2998C283.2 56.9998 279.4 58.9998 278.2 58.4998C277.9 57.9998 277.1 54.7998 289.4 36.4998C289.7 36.0998 289.9 35.6998 290.1 35.3998C290.6 34.5998 290.4 33.4998 289.6 32.9998C288.8 32.4998 287.7 32.6998 287.2 33.4998C287 33.7998 286.8 34.0998 286.5 34.4998C285.4 36.0998 284.4 37.5998 283.5 39.0998C283.2 39.1998 283 39.3998 282.8 39.6998C277.2 47.5998 270.2 54.3998 263.6 58.2998C262.8 58.7998 262.1 59.0998 261.5 59.0998C261 59.0998 260.6 58.8998 260.6 58.7998C260.5 58.6998 260.5 58.2998 261 57.1998C263.7 51.4998 267.7 42.9998 272.2 35.2998C272.7 34.4998 272.4 33.3998 271.6 32.8998C270.8 32.3998 269.7 32.6998 269.2 33.4998C265.3 40.1998 261.7 47.4998 259 53.0998C256.4 55.5998 253.4 57.1998 250.7 57.4998C247.6 57.8998 246.5 57.0998 245.8 54.0998C245.7 53.4998 245.4 49.7998 253.7 35.2998L253.9 34.8998C254.4 33.9998 254.2 32.8998 253.4 32.2998C253.1 31.9998 252.6 31.9998 252.3 31.9998C251.9 32.0998 251.5 32.3998 251.3 32.7998L251.1 33.1998C250.6 34.0998 250.1 34.9998 249.6 35.8998L249.3 36.4998L249.1 35.8998C248.5 34.1998 247.3 32.8998 245.4 31.9998C244.3 31.4998 243.2 31.1998 242 31.2998C237.5 31.4998 233.1 35.7998 230.3 38.9998C227.4 42.2998 225.1 46.4998 224 50.5998C223.8 51.2998 223.6 52.1998 223.5 53.1998V53.2998L223.4 53.3998C222.2 54.2998 221.1 54.9998 220.2 55.4998C218 56.7998 216.4 57.1998 215.7 56.5998C214.5 55.5998 214.7 51.5998 216.1 47.8998C216.7 46.1998 218.4 42.6998 218.4 42.6998C219 41.4998 219.5 40.6998 220 39.8998C220.4 39.1998 220.9 38.5998 221.4 37.5998C222 36.3998 222.7 35.2998 223.3 34.0998C223.7 33.2998 223.4 32.2998 222.6 31.7998C221.8 31.3998 220.8 31.6998 220.3 32.4998C219.7 33.6998 219 34.7998 218.4 35.9998C217.9 36.8998 217.5 37.4998 217.1 38.1998C216.6 38.9998 216.1 39.6998 215.5 40.8998L215.4 40.9998C212.3 43.5998 209.6 44.3998 206.8 43.5998C206 43.3998 204.8 42.5998 204.1 41.5998L204 41.4998L207.6 33.4998C208 32.6998 207.6 31.6998 206.7 31.2998C205.8 30.8998 204.9 31.2998 204.5 32.1998L199 45.5998C197.6 48.0998 195.6 50.0998 193.7 51.7998C190.7 54.4998 183.7 58.4998 182 57.6998C181.7 57.1998 180.8 53.9998 193.2 35.6998C193.5 35.2998 193.7 34.8998 193.9 34.5998C194.4 33.7998 194.2 32.6998 193.4 32.1998C192.6 31.6998 191.5 31.8998 191 32.6998C190.8 32.9998 190.6 33.2998 190.3 33.6998C189.2 35.2998 188.2 36.7998 187.3 38.2998C187 38.3998 186.8 38.5998 186.6 38.8998C181 46.7998 174 53.5998 167.4 57.4998C166.6 57.9998 165.9 58.2998 165.3 58.2998C164.8 58.2998 164.4 58.0998 164.4 57.9998C164.3 57.8998 164.3 57.4998 164.8 56.3998C167.5 50.6998 171.5 42.1998 176 34.4998C176.5 33.6998 176.2 32.5998 175.4 32.0998C174.6 31.5998 173.5 31.8998 173 32.6998C170.9 36.1998 169 39.8998 167.2 43.3998C166.8 43.4998 166.5 43.6998 166.2 43.9998C165.6 44.6998 165.2 45.0998 164.6 45.4998C164.2 45.7998 163.7 46.1998 163.2 46.6998C157.3 52.2998 149.3 57.4998 146.7 56.3998C146.4 55.8998 145.6 52.6998 157.9 34.3998C158.2 33.9998 158.4 33.5998 158.6 33.2998C159.1 32.4998 158.9 31.3998 158.1 30.8998C157.3 30.3998 156.2 30.5998 155.7 31.3998C155.5 31.6998 155.3 31.9998 155 32.3998C153.9 33.9998 152.9 35.4998 152 36.9998C151.7 37.0998 151.5 37.2998 151.3 37.5998C145.7 45.4998 138.7 52.2998 132.1 56.1998C131.3 56.6998 130.6 56.9998 130 56.9998C129.5 56.9998 129.1 56.7998 129.1 56.6998C129 56.5998 129 56.1998 129.5 55.0998C132.2 49.3998 136.2 40.8998 140.7 33.1998C141.2 32.3998 140.9 31.2998 140.1 30.7998C139.3 30.2998 138.2 30.5998 137.7 31.3998C134.6 36.5998 131.8 42.1998 129.4 47.0998L129.1 47.2998C123.9 50.6998 117.3 54.9998 111.9 57.9998C110.9 58.4998 110.2 58.8998 109.4 58.8998C109 58.8998 108.8 58.8998 108.7 58.7998C108.7 58.3998 108.8 57.6998 108.9 57.3998C110.1 54.2998 110.6 50.8998 110.4 47.5998C110.4 46.5998 110.2 45.4998 109.6 44.5998C109 43.6998 108.2 43.1998 107.4 42.8998C111.5 39.4998 115.6 36.1998 119.8 35.3998C120.4 35.2998 121 35.1998 121.4 35.2998C122.1 35.4998 122.6 36.6998 122.9 38.7998C123 39.7998 123.9 40.3998 124.8 40.2998C125.8 40.1998 126.4 39.2998 126.3 38.3998C126.1 36.8998 125.6 33.0998 122.5 31.9998C121.3 31.5998 120.2 31.6998 119.1 31.9998C113.7 33.0998 108.8 37.1998 104.1 41.1998C103.6 41.5998 103.1 41.9998 102.6 42.3998C104.3 38.6998 106 35.1998 107.5 31.8998C107.9 30.9998 107.5 29.9998 106.7 29.5998C105.8 29.1998 104.8 29.5998 104.4 30.3998C102.2 34.9998 99.8002 40.2998 97.3002 45.5998C95.7002 48.9998 94.1002 52.3998 92.6002 55.5998C90.5002 57.0998 88.4002 58.0998 86.1002 58.4998C82.5002 59.1998 81.3002 58.4998 80.4002 55.4998C80.2002 54.8998 79.7002 51.1998 88.2002 35.9998L88.5002 35.4998C89.0002 34.5998 88.7002 33.4998 87.8002 32.9998C86.9002 32.4998 85.8002 32.7998 85.3002 33.6998L85.1002 34.0998C84.6002 35.0998 84.0002 35.9998 83.6002 36.8998L83.3002 37.3998L83.0002 37.1998C82.2002 35.5998 80.7002 34.3998 78.6002 33.5998C77.7002 33.2998 76.7002 33.0998 75.7002 33.0998C75.4002 33.0998 75.0002 33.0998 74.7002 33.1998C69.5002 33.7998 64.9002 38.3998 61.8002 41.8998C58.7002 45.3998 56.3002 49.8998 55.3002 53.9998C54.7002 56.2998 54.4002 60.9998 56.8002 63.6998C57.6002 64.5998 59.1002 65.6998 61.6002 65.3998C61.8002 65.3998 62.0002 65.2998 62.2002 65.2998C67.5002 64.2998 71.2002 60.2998 74.5002 56.3998L75.0002 55.7998C75.4002 55.3998 75.7002 54.8998 76.1002 54.4998L76.7002 53.7998V54.6998C76.7002 55.4998 76.7002 56.1998 76.9002 56.8998C78.7002 62.6998 82.7002 62.8998 85.5002 62.5998C85.9002 62.5998 86.4002 62.4998 86.9002 62.3998C87.9002 62.1998 89.0002 61.8998 90.2002 61.4998C90.1002 62.1998 90.5002 62.8998 91.2002 63.1998C91.4002 63.2998 91.7002 63.3998 91.9002 63.3998C92.6002 63.3998 93.2002 62.9998 93.5002 62.3998C95.4002 58.3998 97.4002 53.9998 99.5002 49.5998C99.6002 49.4998 99.8002 49.3998 99.9002 49.2998C100 49.2998 100.1 49.1998 100.2 49.1998C101 48.7998 101.8 48.2998 102.5 47.8998C103.2 47.3998 103.8 46.9998 104.5 46.6998C105.4 46.2998 106.5 46.3998 106.9 46.8998C107.1 47.1998 107.1 47.6998 107.2 48.1998C107.3 50.9998 106.9 53.8998 105.9 56.5998C105.6 57.4998 105.4 58.8998 105.5 59.8998C105.6 60.7998 106.3 62.7998 109.6 62.7998H109.7C111.4 62.7998 112.8 61.9998 113.8 61.3998C117.9 59.1998 122.5 56.1998 126.8 53.4998C126.7 53.6998 126.7 53.7998 126.6 53.9998C126.2 54.8998 125.3 56.7998 126.2 58.5998C126.9 59.8998 128.4 60.7998 130.1 60.7998C130.2 60.7998 130.4 60.7998 130.5 60.7998C131.9 60.6998 133 60.0998 134.1 59.4998C137.5 57.4998 141.1 54.7998 144.4 51.4998C143.4 54.1998 143.1 56.1998 143.5 57.5998C143.8 58.6998 144.5 59.4998 145.4 59.8998C146 60.1998 146.7 60.2998 147.4 60.2998C144.6 62.9998 142.7 65.6998 141.8 68.6998C141.2 70.6998 141.7 71.7998 142.3 72.3998C142.9 72.9998 143.7 73.3998 144.7 73.3998H144.8C146.1 73.3998 147.5 72.9998 148.7 72.0998C152.3 69.6998 154 65.2998 155.5 60.4998C155.8 59.3998 156.2 58.2998 156.5 57.1998C156.9 56.7998 157.4 56.3998 157.8 55.9998C157.9 55.8998 158 55.7998 158 55.6998C160 54.2998 161.9 52.7998 163.4 51.4998C162.8 52.7998 162.2 53.8998 161.7 54.9998C161.3 55.8998 160.4 57.7998 161.3 59.5998C162 60.8998 163.5 61.7998 165.2 61.7998C165.3 61.7998 165.5 61.7998 165.6 61.7998C167 61.6998 168.1 61.0998 169.2 60.4998C172.6 58.4998 176.2 55.7998 179.5 52.4998C178.5 55.1998 178.2 57.1998 178.6 58.5998C178.9 59.6998 179.6 60.4998 180.5 60.8998C181.1 61.1998 181.7 61.2998 182.4 61.2998C186.5 61.2998 192.1 57.3998 194.6 55.4998C193.8 57.3998 193.3 58.6998 193.1 59.3998C193 59.5998 193 59.6998 192.9 59.8998V59.9998C192.9 60.6998 193.3 61.1998 193.9 61.4998C194.1 61.5998 194.4 61.5998 194.6 61.5998C195.2 61.5998 195.8 61.1998 196.1 60.5998L201.2 48.5998C201.8 47.5998 202.4 46.5998 202.8 45.4998L202.9 45.5998C203.9 46.3998 204.9 46.9998 206 47.2998C207.1 47.5998 208.3 47.7998 209.4 47.6998C210.4 47.6998 211.5 47.4998 212.6 47.0998L213.2 46.8998L213 47.4998C211.8 50.7998 210.5 57.0998 213.6 59.6998C214.5 60.3998 215.5 60.7998 216.8 60.6998C218.3 60.5998 220 59.9998 222 58.8998C222.4 58.5998 222.9 58.3998 223.3 58.0998L223.7 57.8998L223.8 58.2998C224 59.3998 224.4 60.2998 224.9 60.9998C225.6 61.9998 226.8 63.1998 229 63.0998C229.2 63.0998 229.4 63.0998 229.6 63.0998C234.3 62.4998 237.7 58.7998 240.9 55.0998L241.4 54.4998C241.7 54.0998 242.1 53.6998 242.4 53.2998L243 52.5998L242.9 53.4998C242.8 54.2998 242.9 54.9998 243 55.6998C244.3 61.5998 247.7 62.0998 250.1 61.9998C250.5 61.9998 250.9 61.9998 251.4 61.8998C253.3 61.6998 255.4 60.8998 257.3 59.6998C257.3 60.0998 257.5 60.5998 257.7 60.9998C258.4 62.2998 259.9 63.1998 261.6 63.1998C261.7 63.1998 261.9 63.1998 262 63.1998C263.4 63.0998 264.5 62.4998 265.6 61.8998C269 59.8998 272.6 57.1998 275.9 53.9998C274.9 56.6998 274.6 58.6998 275 60.0998C275.3 61.1998 276 61.9998 276.9 62.3998C277.5 62.6998 278.2 62.7998 278.9 62.7998C278.9 62.7998 278.9 62.7998 279 62.7998C276.1 65.4998 274.3 68.1998 273.4 71.1998C272.8 73.1998 273.3 74.2998 273.9 74.8998C274.5 75.4998 275.3 75.8998 276.3 75.8998H276.4C277.7 75.8998 279.1 75.4998 280.3 74.5998C283.9 72.1998 285.6 67.7998 287.1 62.9998C287.4 61.8998 287.8 60.8998 288.1 59.7998C288.5 59.3998 289 58.9998 289.4 58.5998L289.5 58.4998C289.9 58.2998 290.3 57.9998 290.6 57.7998C290.5 58.4998 290.6 59.2998 291 59.9998C291.7 61.2998 293.2 62.1998 294.9 62.1998C295 62.1998 295.2 62.1998 295.3 62.1998C296.7 62.0998 297.8 61.4998 298.9 60.8998C302.3 58.8998 305.9 56.1998 309.2 52.8998C308.2 55.5998 307.9 57.5998 308.3 58.9998C308.6 60.0998 309.3 60.8998 310.2 61.2998C311 61.6998 311.9 61.7998 312.7 61.7998C316.7 61.7998 320.8 58.1998 323.9 54.9998C323.9 56.2998 324.2 57.5998 325 58.6998C325.7 59.6998 327.1 60.8998 329.7 60.8998C331.9 60.8998 333.7 59.6998 335.3 58.6998C338.8 56.2998 341.8 53.8998 344.2 51.3998C344.1 52.0998 344 52.7998 343.9 53.4998C343.6 56.2998 344.6 59.6998 347.6 60.3998C348.9 60.6998 350.1 60.2998 351.1 59.8998C355.4 58.1998 358.5 55.1998 361.5 52.1998C362.4 51.2998 363.4 50.3998 364.3 49.4998C364.9 48.4998 364.9 47.3998 364.3 46.5998ZM72.3002 53.3998L72.0002 53.1998L72.3002 53.3998L71.7002 54.0998C69.0002 57.3998 65.7002 60.9998 61.5002 61.7998C61.4002 61.7998 61.3002 61.7998 61.2002 61.8998C61.1002 61.8998 61.0002 61.8998 60.9002 61.8998C60.2002 61.8998 59.9002 61.5998 59.6002 61.3998C58.6002 60.2998 58.3002 57.4998 58.9002 54.9998C59.7002 51.3998 61.8002 47.5998 64.5002 44.4998C66.0002 42.7998 70.7002 37.4998 75.0002 36.9998C75.8002 36.8998 76.6002 36.9998 77.3002 37.1998C79.2002 37.8998 79.6002 38.7998 79.8002 39.3998C80.9002 43.1998 74.4002 50.8998 72.3002 53.3998ZM146.7 68.9998C146.2 69.3998 145.6 69.5998 145.1 69.6998C145.1 69.5998 145.1 69.5998 145.2 69.4998C146 66.8998 147.6 64.4998 150.3 62.0998C150.7 61.6998 151.1 61.3998 151.6 60.9998C150.4 64.4998 149 67.4998 146.7 68.9998ZM239 51.5998L238.8 51.3998L239 51.5998L238.5 52.1998C235.9 55.2998 232.8 58.5998 229.1 59.0998C229 59.0998 228.9 59.0998 228.8 59.0998H228.7C227.9 59.0998 227.6 58.7998 227.4 58.4998C226.6 57.2998 226.5 54.4998 227.2 52.0998C228.1 48.5998 230.2 44.9998 232.7 42.0998C234.1 40.4998 238.5 35.5998 242.3 35.3998C243 35.3998 243.7 35.4998 244.3 35.7998C245.9 36.5998 246.3 37.4998 246.4 38.0998C247.1 41.9998 241 49.1998 239 51.5998ZM278.2 71.2998C277.7 71.6998 277.1 71.8998 276.6 71.9998C276.6 71.8998 276.6 71.8998 276.7 71.7998C277.5 69.1998 279.1 66.7998 281.8 64.3998C282.2 63.9998 282.6 63.6998 283.1 63.2998C281.8 66.7998 280.5 69.7998 278.2 71.2998ZM339.2 43.1998C337.9 43.3998 337.4 43.1998 337.3 43.0998C337.1 42.8998 337 42.3998 337.1 41.6998C337.4 38.4998 339.6 35.4998 342.7 34.1998C343.5 33.7998 344.5 33.6998 345.4 33.6998C346.7 33.6998 347.9 34.0998 348.4 34.9998C348.8 35.6998 348.8 36.6998 348.4 38.0998C346.1 40.6998 342.8 42.5998 339.2 43.1998Z" fill="url(#paint0_linear)"/>
<path d="M55.2 41.8C54.9 37.6 53 33.9 49.7 31.2C49 30.6 48.2 30.2 47.5 29.9C53.1 24.4 57.3 17.1 56.3 8.99996C56.1 7.09996 55.5 5.69996 54.6 4.59996C51.3 0.899961 45.8 3.19996 42.1 6.19996C39.5 8.29996 34.6 13.7 29.1 20.2C31.3 14.5 33.5 8.79996 35.9 3.39996C36.3 2.59996 35.9 1.59996 35.2 1.19996C34.4 0.799961 33.4 0.999961 32.9 1.69996C29.3 6.99996 11.6 24 11.5 24.2C10.8 24.9 10.8 26 11.5 26.7C12.2 27.4 13.3 27.4 14 26.7C14.5 26.2 22.4 18.6 28.7 12C27.5 15.1 26.2 18.3 25.1 21.4C24.1 24 23.1 26.5 22.2 29C11.4 42.3 0.9 56.9 0.3 60.6C0.1 61.5 0 62.5 0.4 63.4C1.3 66.3 2.9 67 4.1 67.1C4.2 67.1 4.2 67.1 4.3 67.1C7.7 67.1 10.8 62 11.4 60.7C13.2 56.8 15.1 52.9 16.9 49.1C17.8 47.3 18.7 45.5 19.5 43.7C21.4 39.7 23.3 35.2 25.1 30.5C32.7 21.1 40.3 12.3 44.3 8.99996C46.2 7.49996 50.2 5.09996 51.9 7.09996C52.3 7.59996 52.6 8.39996 52.8 9.59996C53.7 17.3 48.5 25.1 41.7 30.5C39.9 31.3 38.2 32.5 36.8 33.5C35.6 34.4 34.4 35.2 33.4 35.6C32.5 36 32.1 37 32.5 37.9C32.9 38.8 33.9 39.2 34.8 38.8C37.5 37.6 40.5 35.8 43.4 33.6C44.9 33 46.3 33 47.5 34C50.1 36.1 51.5 38.8 51.7 42.1C52.1 47.2 49.5 53.4 45.2 58.1C41 62.6 31.8 65.1 26.8 61.3C25 59.9 23.6 57.3 23.4 55C23.3 54 22.5 53.3 21.5 53.4C20.5 53.5 19.8 54.3 19.9 55.3C20.2 58.6 22.1 62.2 24.7 64.1C31.3 69.1 42.3 66.3 47.8 60.5C52.7 55.1 55.6 47.8 55.2 41.8ZM16.3 42.3C15.4 44.1 14.6 45.9 13.7 47.7C11.8 51.5 9.9 55.4 8.1 59.4C7.3 61.2 5.1 63.7 4.3 63.7C4.3 63.7 4 63.5 3.7 62.4C3.6 62.1 3.7 61.6 3.8 61.2C4 59.2 9.6 51 16.6 41.6C16.5 41.9 16.4 42.1 16.3 42.3Z" fill="url(#paint1_linear)"/>
<defs>
<linearGradient id="paint0_linear" x1="54.9291" y1="52.5683" x2="364.753" y2="52.5683" gradientUnits="userSpaceOnUse">
<stop stop-color="#00AC8B"/>
<stop offset="1" stop-color="#44B27E"/>
</linearGradient>
<linearGradient id="paint1_linear" x1="0.1045" y1="34.1005" x2="56.3933" y2="34.1005" gradientUnits="userSpaceOnUse">
<stop stop-color="#00AC8B"/>
<stop offset="1" stop-color="#44B27E"/>
</linearGradient>
</defs>
</svg>
