<svg version="1.1" xmlns="http://www.w3.org/2000/svg" xmlns:xlink="http://www.w3.org/1999/xlink">
    <symbol id="vera" viewBox="0 0 131 40">
        <path d="M44.0001 28.7C44.1001 28.7 44.4001 28.6 44.9001 28.2C45.2001 27.9 45.5001 27.6 45.8001 27.3C46.1001 27 46.5001 26.6 47.0001 26C47.2001 25.7 47.6001 25.4 47.9001 24.9C48.1001 24.6 48.6001 24 49.4001 23C50.2001 22 50.8001 21.1 51.4001 20.4C53.4001 17.7 55.0001 16.2 56.0001 15.9L57.1001 15.7H57.2001C57.2001 15.8 57.2001 15.9 57.1001 15.9L56.5001 16.5L46.5001 26.9C45.2001 28.3 44.3001 28.9 43.9001 28.7C43.4001 28.6 43.2001 28.1 43.2001 27.3C43.2001 26 44.2001 24.2 46.1001 21.9L46.9001 21C48.0001 19.7 48.6001 18.6 48.6001 17.8C48.6001 17.6 48.5001 17.3 48.4001 17C48.3001 16.7 48.2001 16.5 48.1001 16.4C48.1001 17.1 47.9001 17.8 47.5001 18.6C47.1001 19.4 46.5001 20.1 45.7001 20.9C44.3001 22.3 42.8001 23.3 41.2001 23.9C40.8001 24.1 40.4001 24.2 40.0001 24.2C39.6001 24.2 39.2001 24.3 38.7001 24.3C37.9001 24.3 37.3001 24.1 36.8001 23.8C36.4001 23.5 36.1001 23.1 35.9001 22.7C35.7001 22.3 35.6001 21.8 35.6001 21.3C35.6001 20.3 35.9001 19.4 36.5001 18.6C37.1001 17.8 38.1001 17 39.3001 16.3C40.9001 15.4 42.6001 15 44.5001 15C45.8001 15 46.9001 15.2 47.7001 15.7C47.7001 15.2 47.5001 14.8 47.2001 14.4C46.9001 14 46.4001 13.8 45.9001 13.7C45.8001 13.7 45.7001 13.7 45.6001 13.7C45.5001 13.7 45.5001 13.7 45.4001 13.7C45.1001 13.7 44.9001 13.7 44.7001 13.8C44.6001 13.8 44.6001 13.8 44.6001 13.7V13.6C44.6001 13.6 44.6001 13.6 44.6001 13.5C44.8001 13.4 45.1001 13.4 45.5001 13.4C47.1001 13.4 48.0001 14.2 48.2001 15.9C49.0001 16.6 49.4001 17.5 49.4001 18.8C49.4001 20.3 48.4001 22.2 46.5001 24.4L44.0001 27.6C43.8001 27.9 43.7001 28.1 43.7001 28.4C43.7001 28.6 43.8001 28.7 44.0001 28.7ZM39.3001 17.1C38.2001 17.8 37.4001 18.6 36.8001 19.3C36.3001 20 36.0001 20.8 36.0001 21.7C36.0001 22.2 36.1001 22.6 36.2001 23C36.4001 23.4 36.6001 23.7 37.0001 23.9C37.4001 24.2 37.9001 24.3 38.7001 24.3C40.9001 24.3 43.1001 23.2 45.4001 21.1C47.0001 19.6 47.8001 18 47.8001 16.5C47.1001 15.9 46.1001 15.7 44.6001 15.7C42.5001 15.6 40.8001 16.1 39.3001 17.1ZM52.0001 27.8C52.4001 27.8 53.0001 27.6 53.6001 27.1C54.6001 26.4 55.6001 25.4 56.7001 24H57.2001C55.0001 26.8 53.1001 28.2 51.6001 28.2C50.7001 28.2 50.3001 27.7 50.3001 26.7C50.3001 26 50.6001 25.3 51.1001 24.6C51.6001 24 52.2001 23.5 52.9001 23.2C53.4001 23 53.8001 22.8 54.2001 22.8C54.3001 22.8 54.5001 22.8 54.7001 22.8C54.9001 22.8 55.1001 23 55.2001 23.4C55.2001 23.5 55.3001 23.7 55.3001 23.8C55.3001 24.5 54.7001 25 53.6001 25.4C53.5001 25.4 53.2001 25.5 52.9001 25.6C52.6001 25.7 52.3001 25.7 52.2001 25.7C51.7001 26.3 51.5001 26.9 51.5001 27.4C51.4001 27.7 51.6001 27.8 52.0001 27.8ZM52.3001 25.4C52.6001 25.5 53.1001 25.3 53.7001 24.9C54.4001 24.5 54.7001 24.1 54.7001 23.6C54.7001 23.5 54.7001 23.4 54.6001 23.4C54.2001 23.3 53.7001 23.6 53.2001 24.2C52.8001 24.6 52.5001 25 52.3001 25.4ZM57.6001 23.1C57.9001 22.9 58.2001 22.8 58.5001 22.8C58.8001 22.8 59.1001 22.9 59.3001 23C59.5001 23.2 59.7001 23.4 59.7001 23.7C59.7001 24.1 59.2001 24.8 58.3001 26C57.7001 26.8 57.3001 27.4 57.3001 27.6C57.3001 27.7 57.3001 27.7 57.4001 27.8H57.5001C57.9001 27.8 58.7001 27.2 59.8001 26.1C60.6001 25.3 61.3001 24.5 61.8001 23.8H62.3001C61.8001 24.4 61.4001 24.9 61.1001 25.3C60.7001 25.7 60.3001 26.2 59.9001 26.6C59.3001 27.2 58.8001 27.6 58.3001 27.8C57.8001 28.1 57.4001 28.2 57.1001 28.2C56.5001 28.2 56.1001 27.8 56.1001 27.1C56.1001 26.5 56.6001 25.6 57.5001 24.5C58.0001 24 58.2001 23.7 58.2001 23.4C58.2001 23.3 58.2001 23.2 58.1001 23.2C58.0001 23.2 57.8001 23.3 57.5001 23.5L57.0001 24.2L56.6001 24.1L56.8001 23.9C56.7001 23.9 56.6001 23.9 56.6001 23.9C56.4001 23.9 56.3001 23.8 56.2001 23.6C56.1001 23.4 56.3001 23.1 56.6001 22.9C56.8001 22.8 57.0001 22.7 57.2001 22.7C57.5001 22.8 57.6001 22.9 57.6001 23.1ZM56.5001 23.5C56.5001 23.5 56.6001 23.6 56.7001 23.6C56.9001 23.6 57.0001 23.5 57.2001 23.4C57.3001 23.3 57.4001 23.2 57.4001 23.1C57.4001 23 57.2001 23 57.1001 23C56.9001 23 56.8001 23.1 56.6001 23.2C56.4001 23.3 56.4001 23.4 56.5001 23.5ZM65.4001 23.5L65.7001 23.1H67.5001L64.8001 27.1C64.6001 27.3 64.6001 27.5 64.6001 27.7C64.6001 27.8 64.6001 27.8 64.7001 27.9C65.5001 28 67.1001 26.7 69.3001 23.9H69.8001L69.1001 24.8C68.8001 25.2 68.5001 25.6 68.1001 25.9C67.8001 26.2 67.5001 26.5 67.1001 26.9C66.0001 27.9 65.1001 28.4 64.5001 28.3C63.9001 28.2 63.7001 27.9 63.7001 27.3L63.8001 26.7C63.6001 26.9 63.3001 27.2 63.1001 27.4C62.9001 27.6 62.7001 27.7 62.7001 27.8C62.3001 28.1 61.9001 28.3 61.6001 28.3C60.9001 28.3 60.6001 27.8 60.6001 26.9C60.6001 25.9 61.0001 25 61.7001 24.2C62.6001 23.3 63.5001 22.9 64.5001 22.9C64.9001 22.9 65.2001 23.1 65.4001 23.5ZM61.6001 27.5C61.6001 27.7 61.7001 27.8 61.8001 27.8C62.2001 27.8 62.9001 27.2 63.9001 26C64.1001 25.8 64.3001 25.4 64.7001 24.8C64.9001 24.5 65.0001 24.2 65.0001 23.9C65.0001 23.6 65.0001 23.5 64.8001 23.5C64.2001 23.4 63.6001 23.9 62.8001 25C62.0001 26 61.6001 26.9 61.6001 27.5ZM85.7001 23.1C86.8001 23.8 87.3001 24.6 87.3001 25.6C87.3001 26.6 86.8001 27.3 85.9001 27.9C85.1001 28.4 84.2001 28.6 83.2001 28.6C82.6001 28.6 81.9001 28.5 81.1001 28.3L79.6001 28C79.5001 28 79.3001 28.1 79.0001 28.2C78.7001 28.3 78.4001 28.3 78.1001 28.4C77.8001 28.5 77.5001 28.5 77.2001 28.5C77.0001 28.5 76.7001 28.5 76.4001 28.4C76.1001 28.3 75.9001 28.2 75.8001 28V27.9C75.8001 27.5 76.2001 27.3 77.1001 27.3C77.4001 27.3 77.6001 27.3 77.7001 27.3C78.2001 27.4 78.7001 27.5 79.2001 27.6C79.6001 27.5 80.2001 27 80.9001 26.1C81.3001 25.5 81.7001 25 82.0001 24.4L83.5001 21.4C84.2001 20.1 84.9001 19 85.6001 18.3C86.5001 17.4 87.5001 16.8 88.8001 16.5C89.2001 16.5 89.4001 16.5 89.5001 16.6C88.8001 16.9 88.3001 17.2 88.0001 17.6C87.9001 17.7 87.7001 18 87.5001 18.4C87.3001 18.7 87.1001 19 87.0001 19.3L85.0001 22.7C85.7001 22.7 86.4001 22.5 87.3001 22C88.1001 21.6 88.7001 21.1 89.3001 20.3C89.9001 19.5 90.2001 18.8 90.2001 18C90.2001 17.2 89.8001 16.5 88.9001 16C88.4001 15.7 87.9001 15.6 87.4001 15.6C86.6001 15.6 86.0001 15.6 85.6001 15.6C85.2001 15.6 84.8001 15.7 84.3001 15.8C84.5001 16.1 84.6001 16.6 84.6001 17.2C84.6001 18.8 84.0001 20.3 82.7001 21.8C81.1001 23.8 79.5001 24.7 78.0001 24.7C77.3001 24.7 76.8001 24.5 76.3001 24.2C75.9001 23.9 75.7001 23.4 75.7001 22.7C75.7001 21.6 76.2001 20.5 77.1001 19.3C78.7001 17.3 80.8001 16 83.5001 15.5C82.9001 15.1 82.1001 15 81.2001 15C79.4001 15 77.8001 15.6 76.6001 16.9C75.8001 17.7 75.3001 18.7 75.0001 19.9C74.9001 20.2 74.8001 20.6 74.8001 21.1C74.8001 21.6 74.8001 22.1 74.8001 22.7C74.8001 22.8 74.7001 22.9 74.6001 22.9C74.5001 22.8 74.5001 22.8 74.5001 22.7V20.8C74.5001 19.2 75.2001 17.7 76.5001 16.5C77.9001 15.2 79.4001 14.6 81.1001 14.6C82.2001 14.6 83.2001 14.9 83.9001 15.4C84.8001 15.2 85.5001 15.1 85.9001 15.1C87.3001 15.1 88.3001 15.2 89.0001 15.4C90.0001 15.7 90.7001 16.3 91.2001 17.2C91.4001 17.6 91.5001 18 91.5001 18.5C91.5001 19.2 91.3001 19.8 91.0001 20.4C90.4001 21.3 89.5001 21.9 88.3001 22.4C88.0001 22.5 87.1001 22.8 85.7001 23.1ZM77.3001 20C76.6001 21.1 76.3001 22 76.3001 22.9C76.3001 23.5 76.5001 23.9 77.0001 24.2C77.3001 24.4 77.7001 24.5 78.1001 24.5C78.3001 24.5 78.4001 24.5 78.5001 24.5C79.7001 24.3 81.0001 23.5 82.3001 22C82.9001 21.2 83.4001 20.5 83.8001 19.8C84.1001 19.1 84.3001 18.4 84.3001 17.8C84.3001 17 84.2001 16.4 84.0001 16.1C81.0001 16.4 78.8001 17.8 77.3001 20ZM77.3001 27.5C76.6001 27.5 76.3001 27.6 76.3001 27.8C76.3001 27.9 76.5001 28 76.8001 28.1C77.1001 28.2 77.3001 28.2 77.5001 28.2C77.7001 28.2 77.9001 28.2 78.1001 28.1C78.3001 28 78.6001 28 78.9001 27.8C78.5001 27.7 78.0001 27.6 77.3001 27.5ZM80.4001 27.7C80.9001 27.8 81.4001 27.9 81.9001 27.9C83.1001 27.9 84.0001 27.7 84.6001 27.1C85.5001 26.4 86.0001 25.5 86.0001 24.5C86.0001 24.1 85.9001 23.8 85.6001 23.5C85.3001 23.2 85.1001 23 84.7001 23C83.4001 25.5 81.9001 27.1 80.4001 27.7ZM92.4001 23.1L89.9001 26.7C89.7001 27 89.6001 27.2 89.6001 27.4C89.6001 27.5 89.7001 27.6 89.8001 27.6C90.0001 27.6 90.5001 27.2 91.3001 26.4C91.7001 26 92.1001 25.6 92.4001 25.1L94.0001 23H95.5001L92.8001 27.1C93.4001 26.9 94.8001 25.8 96.9001 23.9H97.3001C97.0001 24.2 96.7001 24.5 96.4001 24.8C96.1001 25.1 95.7001 25.4 95.2001 25.8C94.7001 26.2 94.2001 26.6 93.7001 26.9C93.2001 27.2 92.9001 27.4 92.5001 27.6L91.0001 29.8C90.3001 30.8 89.6001 31.7 88.8001 32.5C87.6001 33.7 86.7001 34.3 85.9001 34.3C85.6001 34.3 85.4001 34.1 85.4001 33.8C85.4001 33.7 85.4001 33.6 85.4001 33.5C85.4001 32.7 86.0001 31.7 87.3001 30.5C88.5001 29.3 89.6001 28.5 90.6001 28.1L91.7001 26.5C91.1001 27.1 90.7001 27.5 90.4001 27.7C89.9001 28.1 89.5001 28.3 89.1001 28.2C88.7001 28.1 88.5001 27.8 88.5001 27.3C88.5001 26.4 89.3001 25 90.8001 23.1H92.4001ZM86.9001 31.3C86.2001 32.1 85.8001 32.8 85.7001 33.4C85.7001 33.8 85.8001 34 85.9001 34C86.4001 34.1 87.9001 32.2 90.4001 28.4C89.3001 29 88.2001 29.9 86.9001 31.3ZM98.6001 22.5C98.6001 22.7 98.5001 23 98.2001 23.2C98.6001 23.7 98.8001 24.3 98.8001 25.1C98.8001 25.7 98.5001 26.4 97.9001 27.2C98.4001 27 99.1001 26.5 100 25.6C100.8 24.9 101.4 24.3 101.8 23.7L102.2 23.6C100.9 25.2 99.7001 26.4 98.5001 27.1C97.4001 27.9 96.3001 28.2 95.3001 28.2C94.8001 28.2 94.5001 28 94.3001 27.7C94.3001 27.6 94.2001 27.5 94.2001 27.3C94.2001 27.1 94.3001 26.8 94.5001 26.6C94.7001 26.4 94.9001 26.3 95.2001 26.3C95.4001 26.3 95.6001 26.3 95.7001 26.5C95.8001 26.7 95.8001 26.9 95.8001 27C95.7001 27.3 95.3001 27.5 94.7001 27.6L94.8001 27.8H95.0001C95.4001 27.8 95.8001 27.5 96.3001 26.9C96.7001 26.4 97.0001 25.9 97.1001 25.4C97.3001 25 97.4001 24.6 97.4001 24.2L97.3001 23.7L97.0001 23.9V23.7C97.0001 23.6 97.1001 23.5 97.2001 23.3L97.5001 22.9C97.7001 22.5 97.9001 22.3 98.1001 22.3C98.4001 22.2 98.5001 22.3 98.6001 22.5ZM106.6 18.7L105 21H106.6V21.4H104.8L101.3 26.6C101 27 100.9 27.3 100.9 27.5C100.9 27.7 101 27.8 101.2 27.8C101.6 27.8 102.3 27.3 103.2 26.4C104 25.7 104.7 24.9 105.4 23.9H105.8C105.5 24.4 105.1 24.8 104.7 25.3C104.3 25.8 103.8 26.2 103.4 26.6C102.8 27.1 102.3 27.6 101.9 27.8C101.4 28.1 101.1 28.2 100.8 28.2C100.2 28.2 100 27.9 100 27.2C100 26.4 100.5 25.2 101.6 23.6L103.1 21.3H101.7V21H103.3L104.9 18.7H106.6ZM106.1 23.1C106.4 22.9 106.7 22.8 107 22.8C107.3 22.8 107.6 22.9 107.8 23C108 23.2 108.2 23.4 108.2 23.7C108.2 24.1 107.7 24.8 106.8 26C106.2 26.8 105.8 27.4 105.8 27.6C105.8 27.7 105.8 27.7 105.9 27.8H106C106.4 27.8 107.2 27.2 108.3 26.1C109.1 25.3 109.8 24.5 110.3 23.8H110.8C110.3 24.4 109.9 24.9 109.6 25.3C109.2 25.7 108.8 26.2 108.3 26.6C107.7 27.2 107.2 27.6 106.7 27.8C106.2 28.1 105.8 28.2 105.5 28.2C104.9 28.2 104.5 27.8 104.5 27.1C104.5 26.5 105 25.6 105.9 24.5C106.4 24 106.6 23.7 106.6 23.4C106.6 23.3 106.6 23.2 106.5 23.2C106.4 23.2 106.2 23.3 105.9 23.5L105.3 24L104.9 23.9L105.1 23.7C105 23.7 104.9 23.7 104.9 23.7C104.7 23.7 104.6 23.6 104.5 23.4C104.4 23.2 104.6 22.9 104.9 22.7C105.1 22.6 105.3 22.5 105.5 22.5C106 22.8 106.1 22.9 106.1 23.1ZM105 23.5C105 23.5 105.1 23.6 105.2 23.6C105.4 23.6 105.5 23.5 105.7 23.4C105.8 23.3 105.9 23.2 105.9 23.1C105.9 23 105.8 23 105.7 23C105.5 23 105.4 23.1 105.2 23.2C105 23.3 104.9 23.4 105 23.5ZM113.9 25C114 25 114.1 25 114.2 25C114.8 25 115.4 24.6 115.9 23.9L116.1 24C115.5 24.8 114.8 25.2 114.1 25.2H113.8C113.5 25.9 113 26.5 112.4 27.1C111.7 27.8 110.9 28.1 110.1 28.1C109.3 28.1 108.8 27.6 108.8 26.7C108.8 26.1 109 25.4 109.4 24.8C109.8 24.2 110.3 23.7 110.8 23.4C111.4 23 112 22.8 112.6 22.8C113 22.8 113.3 23 113.4 23.3C113.5 23.3 113.6 23.4 113.9 23.6C114 23.7 114.1 23.9 114.1 24.1C114.1 24.4 114 24.7 113.9 25ZM110.4 27.7C110.5 27.8 110.6 27.8 110.9 27.8C111.4 27.6 112 27.3 112.5 26.8C113 26.3 113.3 25.8 113.6 25.3C113.2 25.1 113 24.8 113 24.4C113 24.1 113.1 23.9 113.4 23.6C112.8 23.9 112.1 24.3 111.6 25C111.3 25.3 111 25.8 110.7 26.3C110.4 26.8 110.3 27.2 110.3 27.5C110.2 27.5 110.3 27.6 110.4 27.7ZM113.7 25C113.8 24.6 113.9 24.4 113.9 24.1C113.9 23.8 113.8 23.7 113.6 23.7C113.4 23.9 113.3 24.1 113.3 24.4C113.3 24.7 113.4 24.9 113.7 25ZM120.5 22.7C120.7 22.7 120.9 22.8 120.9 23.1V23.3C120.9 23.6 120.6 24.1 120 24.7C120.2 24.8 120.4 24.9 120.6 24.9C121.1 24.9 121.5 24.7 121.8 24.3H122.2C121.8 24.9 121.3 25.2 120.6 25.2C120.3 25.2 120.1 25.1 119.7 25L119.4 25.4C118.8 26 118.2 26.6 117.6 27.1C116.6 27.9 115.9 28.3 115.3 28.3C114.8 28.3 114.5 28 114.5 27.3C114.5 26.2 115.2 24.8 116.6 23.1H118.4C116.6 25.5 115.7 26.9 115.7 27.4C115.7 27.5 115.8 27.6 115.9 27.6C116.2 27.6 117 27.1 118 26.1L119.4 24.7C119.3 24.5 119.2 24.2 119.2 23.9C119.2 23.3 119.4 22.9 119.8 22.7C120 22.7 120.2 22.6 120.5 22.7ZM119.7 24.4C120.2 23.9 120.4 23.5 120.4 23.2C120.4 23 120.3 22.9 120.1 22.9C119.9 22.9 119.8 23 119.7 23.3C119.6 23.5 119.5 23.7 119.5 23.9C119.6 24.1 119.6 24.3 119.7 24.4ZM125.3 23.5L125.6 23.1H127.4L124.7 27.1C124.5 27.3 124.4 27.5 124.4 27.7C124.4 27.8 124.4 27.8 124.5 27.9C125.3 28 126.9 26.7 129.1 23.9H129.6L128.9 24.8C128.6 25.2 128.3 25.6 127.9 25.9C127.6 26.2 127.3 26.5 126.9 26.9C125.8 27.9 124.9 28.4 124.3 28.3C123.7 28.2 123.5 27.9 123.5 27.3L123.6 26.7C123.4 26.9 123.1 27.2 122.9 27.4C122.7 27.6 122.5 27.7 122.5 27.8C122.1 28.1 121.7 28.3 121.4 28.3C120.7 28.3 120.4 27.8 120.4 26.9C120.4 25.9 120.8 25 121.5 24.2C122.4 23.3 123.3 22.9 124.3 22.9C124.8 22.9 125.1 23.1 125.3 23.5ZM121.5 27.5C121.5 27.7 121.6 27.8 121.7 27.8C122.1 27.8 122.8 27.2 123.8 26C124 25.8 124.2 25.4 124.6 24.8C124.8 24.5 124.9 24.2 124.9 23.9C124.9 23.6 124.9 23.5 124.7 23.5C124.1 23.4 123.5 23.9 122.7 25C121.9 26 121.5 26.9 121.5 27.5ZM16.7001 37.8C16.3001 37.4 16.5001 36.6 16.7001 36.1C16.8001 35.8 17.0001 35.6 17.2001 35.3C19.2001 32.2 21.0001 29 20.8001 25.2C20.7001 23.3 20.2001 20.9 19.2001 19.3C18.2001 17.7 18.2001 17.8 17.9001 16.2C17.6001 14.6 18.4001 12.8 18.4001 12.8C20.5001 3.50005 13.4001 1.80005 10.9001 1.90005C8.40007 1.90005 1.40007 3.70005 3.70007 13C3.70007 13 4.50007 14.8 4.20007 16.4C3.90007 18 4.00007 17.9 3.00007 19.5C2.00007 21.1 1.50007 23.5 1.50007 25.4C1.40007 29.2 3.20007 32.3 5.30007 35.4C5.50007 35.7 5.70007 35.9 5.80007 36.2C6.00007 36.7 6.30007 37.5 5.80007 37.9C5.50007 38 5.10007 38.3 5.00007 38.6C4.90007 38.8 5.00007 39.2 5.00007 39.2C5.00007 39.2 7.80007 39.2 9.10007 39.2C9.50007 39.2 9.80007 39.2 10.2001 39.2C10.5001 39.2 10.8001 39.2 11.1001 39.2C11.4001 39.2 11.8001 39.2 12.2001 39.2C12.7001 39.2 13.2001 39.2 13.5001 39.2C14.8001 39.2 17.6001 39.2 17.6001 39.2C17.6001 39.2 17.6001 38.8 17.6001 38.5C17.4001 38.2 16.9001 38 16.7001 37.8ZM10.8001 16.6C7.30007 16.5 4.50007 13.7 4.60007 10.2C4.60007 9.50005 4.80007 8.80005 5.00007 8.10005L16.8001 8.00005C17.1001 8.70005 17.2001 9.50005 17.2001 10.4C17.2001 13.9 14.3001 16.7 10.8001 16.6Z"/>
    </symbol>
</svg>